<svg width="74" height="15" viewBox="0 0 74 15" fill="none" xmlns="http://www.w3.org/2000/svg" data-v-39f066c9=""><g clip-path="url(#clip0_4076_30534)" data-v-39f066c9=""><path d="M23.6553 7.98122V7.80541C23.6553 7.36364 23.4987 7.02554 23.1858 6.79113C22.8822 6.5477 22.4838 6.42599 21.9906 6.42599C21.6112 6.42599 21.3124 6.4891 21.0943 6.61532C20.8856 6.73253 20.6864 6.91285 20.4967 7.15627C20.4398 7.2284 20.3781 7.27799 20.3117 7.30503C20.2454 7.33208 20.1552 7.34561 20.0414 7.34561H19.6145C19.5102 7.34561 19.4154 7.30954 19.33 7.23742C19.2541 7.16529 19.221 7.07964 19.2304 6.98046C19.2589 6.70998 19.3963 6.44402 19.643 6.18256C19.8991 5.91208 20.2358 5.69119 20.6532 5.51989C21.0706 5.34859 21.5164 5.26294 21.9906 5.26294C22.8727 5.26294 23.5841 5.49735 24.1247 5.96618C24.6749 6.43501 24.95 7.09316 24.95 7.94065V12.0654C24.95 12.1646 24.912 12.2503 24.8362 12.3224C24.7603 12.3945 24.6702 12.4305 24.5659 12.4305H24.0394C23.935 12.4305 23.845 12.3945 23.7691 12.3224C23.6932 12.2503 23.6553 12.1646 23.6553 12.0654V11.5109C23.5035 11.8355 23.181 12.0925 22.6877 12.2818C22.1945 12.4712 21.7013 12.5658 21.208 12.5658C20.7243 12.5658 20.2928 12.4846 19.9133 12.3224C19.5339 12.151 19.2399 11.9211 19.0312 11.6326C18.832 11.3441 18.7324 11.0196 18.7324 10.6589C18.7324 9.98271 18.998 9.45531 19.5292 9.07662C20.0604 8.68894 20.767 8.42751 21.6491 8.29227L23.6553 7.98122ZM23.6553 9.06317L21.9764 9.32005C21.3598 9.41023 20.8809 9.55903 20.5394 9.76637C20.1979 9.96471 20.0272 10.2171 20.0272 10.5237C20.0272 10.7491 20.1362 10.952 20.3544 11.1323C20.5725 11.3126 20.9046 11.4027 21.3504 11.4027C22.0333 11.4027 22.5882 11.2179 23.015 10.8483C23.4418 10.4787 23.6553 9.99625 23.6553 9.40123V9.06317Z" fill="#636363" data-v-39f066c9=""></path> <path d="M28.324 12.0654C28.324 12.1645 28.2861 12.2502 28.2102 12.3223C28.1343 12.3944 28.0442 12.4305 27.9398 12.4305H27.4135C27.3091 12.4305 27.219 12.3944 27.1431 12.3223C27.0672 12.2502 27.0293 12.1645 27.0293 12.0654V3.19376C27.0293 3.09458 27.0672 3.00893 27.1431 2.9368C27.219 2.86467 27.3091 2.82861 27.4135 2.82861H27.9398C28.0442 2.82861 28.1343 2.86467 28.2102 2.9368C28.2861 3.00893 28.324 3.09458 28.324 3.19376V12.0654Z" fill="#636363" data-v-39f066c9=""></path> <path d="M33.4509 11.4027C34.3995 11.4027 35.0397 11.0511 35.3718 10.3479C35.4381 10.2127 35.5045 10.118 35.571 10.0639C35.6373 10.0098 35.7274 9.98271 35.8413 9.98271H36.2681C36.3725 9.98271 36.4625 10.0188 36.5384 10.091C36.6143 10.1541 36.6522 10.2307 36.6522 10.3209C36.6522 10.6274 36.5242 10.9564 36.2681 11.3081C36.012 11.6597 35.6421 11.9572 35.1583 12.2007C34.6745 12.4441 34.1055 12.5658 33.4509 12.5658C32.7775 12.5658 32.1941 12.4305 31.701 12.1601C31.2078 11.8896 30.8283 11.52 30.5627 11.0511C30.2971 10.5733 30.1501 10.0413 30.1216 9.45531C30.1121 9.34714 30.1074 9.1398 30.1074 8.8332C30.1074 8.61685 30.1121 8.46357 30.1216 8.37342C30.2071 7.4538 30.5342 6.70548 31.1034 6.12847C31.6725 5.55145 32.4551 5.26294 33.4509 5.26294C34.1055 5.26294 34.6698 5.38465 35.1441 5.62808C35.6278 5.86249 35.993 6.15551 36.2396 6.50713C36.4957 6.84973 36.6333 7.17431 36.6522 7.48085C36.6617 7.58002 36.6238 7.66567 36.5384 7.73779C36.4625 7.80992 36.3725 7.84599 36.2681 7.84599H35.8413C35.7274 7.84599 35.6373 7.81894 35.571 7.76484C35.5045 7.71075 35.4381 7.61608 35.3718 7.48085C35.0397 6.7776 34.3995 6.42599 33.4509 6.42599C32.9293 6.42599 32.474 6.59278 32.0851 6.92637C31.6962 7.25995 31.4733 7.76484 31.4164 8.44104C31.4069 8.54021 31.4022 8.70248 31.4022 8.92791C31.4022 9.13525 31.4069 9.28851 31.4164 9.38768C31.4828 10.0639 31.7057 10.5687 32.0851 10.9023C32.474 11.2359 32.9293 11.4027 33.4509 11.4027Z" fill="#636363" data-v-39f066c9=""></path> <path d="M44.9228 12.0654C44.9228 12.1645 44.8849 12.2502 44.809 12.3223C44.7331 12.3944 44.6431 12.4305 44.5387 12.4305H44.0123C43.9079 12.4305 43.8178 12.3944 43.7419 12.3223C43.6661 12.2502 43.6281 12.1645 43.6281 12.0654V8.49509C43.6281 7.8189 43.4526 7.305 43.1017 6.95337C42.7507 6.60176 42.2622 6.42595 41.6362 6.42595C41.0197 6.42595 40.5312 6.60176 40.1707 6.95337C39.8198 7.305 39.6443 7.8189 39.6443 8.49509V12.0654C39.6443 12.1645 39.6063 12.2502 39.5305 12.3223C39.4546 12.3944 39.3645 12.4305 39.2602 12.4305H38.7337C38.6294 12.4305 38.5393 12.3944 38.4634 12.3223C38.3875 12.2502 38.3496 12.1645 38.3496 12.0654V3.19376C38.3496 3.09458 38.3875 3.00893 38.4634 2.9368C38.5393 2.86467 38.6294 2.82861 38.7337 2.82861H39.2602C39.3645 2.82861 39.4546 2.86467 39.5305 2.9368C39.6063 3.00893 39.6443 3.09458 39.6443 3.19376V6.18252C39.8529 5.92106 40.1376 5.70468 40.498 5.53337C40.8679 5.35305 41.3185 5.2629 41.8496 5.2629C42.4472 5.2629 42.9784 5.38461 43.4432 5.62804C43.9079 5.87147 44.2684 6.22309 44.5245 6.6829C44.79 7.13369 44.9228 7.67014 44.9228 8.29223V12.0654Z" fill="#636363" data-v-39f066c9=""></path> <path d="M49.9096 5.26294C50.9246 5.26294 51.7261 5.56948 52.3142 6.18256C52.9023 6.79564 53.1963 7.62961 53.1963 8.68448V9.04963C53.1963 9.1488 53.1584 9.23442 53.0825 9.3066C53.0066 9.37868 52.9165 9.41477 52.8121 9.41477H47.9178V9.49585C47.9368 10.091 48.1265 10.5597 48.4869 10.9023C48.8568 11.2359 49.3311 11.4027 49.9096 11.4027C50.384 11.4027 50.7491 11.3441 51.0053 11.2269C51.2708 11.1098 51.5079 10.943 51.7166 10.7265C51.7925 10.6545 51.8589 10.6048 51.9158 10.5778C51.9822 10.5507 52.0676 10.5372 52.1719 10.5372H52.5987C52.7126 10.5372 52.8074 10.5733 52.8833 10.6455C52.9592 10.7175 52.9923 10.8032 52.9829 10.9023C52.9449 11.1458 52.8026 11.3983 52.556 11.6597C52.3189 11.9121 51.9727 12.1286 51.5174 12.3088C51.0716 12.4802 50.5357 12.5658 49.9096 12.5658C49.3026 12.5658 48.762 12.4351 48.2877 12.1736C47.8134 11.9031 47.434 11.5335 47.1495 11.0647C46.8744 10.5958 46.7084 10.0684 46.6515 9.4824C46.6325 9.21188 46.623 9.00454 46.623 8.86028C46.623 8.71603 46.6325 8.50866 46.6515 8.23818C46.7084 7.67919 46.8744 7.17431 47.1495 6.72351C47.434 6.27271 47.8087 5.91659 48.2734 5.65513C48.7478 5.39367 49.2931 5.26294 49.9096 5.26294ZM51.9158 8.27875V8.23818C51.9158 7.68821 51.7308 7.25094 51.3609 6.92637C51.0005 6.59278 50.5167 6.42599 49.9096 6.42599C49.3596 6.42599 48.89 6.59278 48.5011 6.92637C48.1217 7.25995 47.9273 7.69723 47.9178 8.23818V8.27875H51.9158Z" fill="#636363" data-v-39f066c9=""></path> <path d="M56.2068 6.18256C56.4345 5.90307 56.6906 5.68218 56.9751 5.51989C57.2597 5.34859 57.639 5.26294 58.1134 5.26294C59.2231 5.26294 60.0009 5.65513 60.4467 6.43951C60.7218 6.06085 61.0348 5.77234 61.3858 5.57399C61.7367 5.36662 62.1967 5.26294 62.7658 5.26294C63.6954 5.26294 64.3831 5.52891 64.8289 6.06085C65.2841 6.59278 65.5119 7.34561 65.5119 8.31932V12.0654C65.5119 12.1646 65.4739 12.2503 65.398 12.3224C65.3222 12.3945 65.232 12.4305 65.1277 12.4305H64.6012C64.4969 12.4305 64.4068 12.3945 64.3309 12.3224C64.255 12.2503 64.2171 12.1646 64.2171 12.0654V8.45456C64.2171 7.10218 63.6575 6.42599 62.5382 6.42599C62.026 6.42599 61.6182 6.58827 61.3146 6.91285C61.0111 7.23742 60.8593 7.71977 60.8593 8.35989V12.0654C60.8593 12.1646 60.8214 12.2503 60.7455 12.3224C60.6696 12.3945 60.5795 12.4305 60.4752 12.4305H59.9488C59.8444 12.4305 59.7543 12.3945 59.6784 12.3224C59.6025 12.2503 59.5646 12.1646 59.5646 12.0654V8.45456C59.5646 7.10218 59.005 6.42599 57.8857 6.42599C57.3735 6.42599 56.9656 6.58827 56.6621 6.91285C56.3586 7.23742 56.2068 7.71977 56.2068 8.35989V12.0654C56.2068 12.1646 56.1688 12.2503 56.093 12.3224C56.0171 12.3945 55.927 12.4305 55.8227 12.4305H55.2962C55.1919 12.4305 55.1018 12.3945 55.0259 12.3224C54.95 12.2503 54.9121 12.1646 54.9121 12.0654V5.76332C54.9121 5.66414 54.95 5.5785 55.0259 5.50637C55.1018 5.43424 55.1919 5.39818 55.2962 5.39818H55.8227C55.927 5.39818 56.0171 5.43424 56.093 5.50637C56.1688 5.5785 56.2068 5.66414 56.2068 5.76332V6.18256Z" fill="#636363" data-v-39f066c9=""></path> <path d="M69.4976 14.6755C69.4123 14.8919 69.2747 15.0001 69.085 15.0001H68.5017C68.4068 15.0001 68.3262 14.9686 68.2598 14.9055C68.1934 14.8423 68.1602 14.7657 68.1602 14.6755C68.1602 14.6395 68.1649 14.6079 68.1744 14.5809L69.5403 11.7544L66.7232 5.81743C66.7137 5.79038 66.709 5.75883 66.709 5.72277C66.709 5.63261 66.7421 5.55597 66.8085 5.49286C66.875 5.42974 66.9556 5.39819 67.0504 5.39819H67.6337C67.8234 5.39819 67.961 5.50638 68.0463 5.72277L70.2375 10.3209L72.457 5.72277C72.5424 5.50638 72.6799 5.39819 72.8696 5.39819H73.453C73.5478 5.39819 73.6284 5.42974 73.6948 5.49286C73.7612 5.55597 73.7944 5.63261 73.7944 5.72277C73.7944 5.75883 73.7897 5.79038 73.7802 5.81743L69.4976 14.6755Z" fill="#636363" data-v-39f066c9=""></path> <path d="M13.3579 7.95656L8.58044 0.128129C8.55732 0.0894737 8.52381 0.0572738 8.48332 0.0347787C8.44284 0.0122836 8.39679 0.000288988 8.34985 5.15701e-06C8.30289 -0.000278674 8.2567 0.0111583 8.21591 0.033162C8.17513 0.0551657 8.14121 0.086958 8.11756 0.125331L6.68676 2.47107C6.6399 2.54785 6.61523 2.63495 6.61523 2.72361C6.61523 2.81228 6.6399 2.89938 6.68676 2.97616L9.80197 8.08319C9.84886 8.16005 9.91635 8.22386 9.99761 8.2682C10.0789 8.31254 10.1711 8.33583 10.2648 8.33574H13.1265C13.1733 8.33561 13.2193 8.32384 13.2598 8.30163C13.3004 8.27942 13.334 8.24752 13.3575 8.20914C13.3809 8.17076 13.3933 8.12723 13.3934 8.08291C13.3934 8.03859 13.3812 7.99502 13.3579 7.95656Z" fill="#636363" data-v-39f066c9=""></path> <path d="M0.831761 12.0481L5.60921 4.21962C5.63265 4.18127 5.66635 4.14943 5.70691 4.12729C5.74747 4.10515 5.79346 4.09351 5.84028 4.09351C5.8871 4.09351 5.93311 4.10515 5.97367 4.12729C6.01423 4.14943 6.04791 4.18127 6.07135 4.21962L7.50289 6.56325C7.54974 6.64016 7.57439 6.72738 7.57439 6.81615C7.57439 6.90493 7.54974 6.99214 7.50289 7.06905L4.38767 12.1761C4.34095 12.2529 4.27361 12.3168 4.19247 12.3611C4.11132 12.4054 4.01924 12.4287 3.92553 12.4286H1.0632C1.01605 12.4289 0.96968 12.4172 0.928802 12.395C0.887924 12.3727 0.854004 12.3407 0.830488 12.302C0.806973 12.2634 0.7947 12.2195 0.794925 12.1749C0.795149 12.1303 0.807857 12.0865 0.831761 12.0481Z" fill="#636363" data-v-39f066c9=""></path> <path d="M6.06941 12.4269H15.6243C15.6712 12.4269 15.7172 12.4151 15.7578 12.3929C15.7984 12.3707 15.832 12.3388 15.8554 12.3004C15.8787 12.262 15.8911 12.2183 15.891 12.174C15.8909 12.1296 15.8786 12.0861 15.855 12.0478L14.4257 9.70271C14.3788 9.62582 14.3113 9.56205 14.23 9.51774C14.1488 9.47334 14.0566 9.45011 13.9628 9.4502H7.73239C7.63858 9.45011 7.54641 9.47334 7.46515 9.51774C7.3839 9.56205 7.3164 9.62582 7.2695 9.70271L5.83872 12.0478C5.81521 12.0861 5.80281 12.1296 5.80273 12.174C5.80267 12.2183 5.81494 12.262 5.83832 12.3004C5.8617 12.3388 5.89538 12.3707 5.93595 12.3929C5.97651 12.4151 6.02253 12.4269 6.06941 12.4269Z" fill="#636363" data-v-39f066c9=""></path></g> <defs data-v-39f066c9=""><clipPath id="clip0_4076_30534" data-v-39f066c9=""><rect width="73" height="15" fill="white" transform="translate(0.794922)" data-v-39f066c9=""></rect></clipPath></defs></svg>