<svg viewBox="0 0 225 125" fill="none" xmlns="http://www.w3.org/2000/svg"><g filter="url(#filter0_d_3240_89710)"><path d="M85 61.5823C85 50.4484 113.001 44.9257 113.001 33.7919" stroke="#FF6647" stroke-width="2" stroke-miterlimit="10" shape-rendering="crispEdges"></path></g><g filter="url(#filter1_d_3240_89710)"><path d="M99 61.5823C99 50.4484 113.001 44.9257 113.001 33.7919" stroke="#FF6647" stroke-width="2" stroke-miterlimit="10" shape-rendering="crispEdges"></path></g><g filter="url(#filter2_d_3240_89710)"><path d="M113 61.5823V33.7919" stroke="#FF6647" stroke-width="2" stroke-miterlimit="10" shape-rendering="crispEdges"></path></g><g filter="url(#filter3_d_3240_89710)"><path d="M127 61.5823C127 50.4484 113 44.9257 113 33.7919" stroke="#FF6647" stroke-width="2" stroke-miterlimit="10" shape-rendering="crispEdges"></path></g><g filter="url(#filter4_d_3240_89710)"><path d="M140.999 61.5823C140.999 50.4484 113 44.9257 113 33.7919" stroke="#FF6647" stroke-width="2" stroke-miterlimit="10" shape-rendering="crispEdges"></path></g><g filter="url(#filter5_d_3240_89710)"><path d="M140.999 6C140.999 17.1338 113 22.6582 113 33.7921" stroke="#FF6647" stroke-width="2" stroke-miterlimit="10" shape-rendering="crispEdges"></path></g><g filter="url(#filter6_d_3240_89710)"><path d="M127 6C127 17.1338 113 22.6582 113 33.7921" stroke="#FF6647" stroke-width="2" stroke-miterlimit="10" shape-rendering="crispEdges"></path></g><g filter="url(#filter7_d_3240_89710)"><path d="M113 6V33.7921" stroke="#FF6647" stroke-width="2" stroke-miterlimit="10" shape-rendering="crispEdges"></path></g><g filter="url(#filter8_d_3240_89710)"><path d="M99 6C99 17.1338 113.001 22.6582 113.001 33.7921" stroke="#FF6647" stroke-width="2" stroke-miterlimit="10" shape-rendering="crispEdges"></path></g><g filter="url(#filter9_d_3240_89710)"><path d="M85 6C85 17.1338 113.001 22.6582 113.001 33.7921" stroke="#FF6647" stroke-width="2" stroke-miterlimit="10" shape-rendering="crispEdges"></path></g><path d="M7.66605 85.987H2.67405V112H7.66605V85.987ZM38.3746 85.987H33.4216V100.963C33.4216 103.225 33.4216 103.225 33.5776 107.671H33.4216C32.9536 106.657 32.4856 105.682 32.0176 104.707C30.7306 101.977 30.2236 100.846 29.3656 99.169L22.5796 85.987H14.2336V112H19.1476V97.063C19.1476 94.801 19.1476 94.801 18.9916 90.277H19.1476C21.7606 96.166 21.8386 96.322 22.5406 97.726L29.9896 112H38.3746V85.987ZM61.5644 85.987L56.7674 100.729C56.0654 102.874 55.9094 103.42 54.7004 107.788H54.5834C53.8424 105.058 52.9064 101.821 52.5164 100.729L47.6414 85.987H42.5324L50.8394 112H58.4054L66.7904 85.987H61.5644ZM76.2412 90.121H89.0332V85.987H71.2492V112H89.1502V107.866H76.2412V100.534H88.3702V96.868H76.2412V90.121ZM118.947 85.987H113.994V100.963C113.994 103.225 113.994 103.225 114.15 107.671H113.994C113.526 106.657 113.058 105.682 112.59 104.707C111.303 101.977 110.796 100.846 109.938 99.169L103.152 85.987H94.8059V112H99.7199V97.063C99.7199 94.801 99.7199 94.801 99.5639 90.277H99.7199C102.333 96.166 102.411 96.322 103.113 97.726L110.562 112H118.947V85.987ZM136.088 90.394H143.771V85.987H123.569V90.355H131.096V112H136.088V90.394ZM159.429 85.753C157.089 85.753 154.944 85.87 153.93 86.104C151.785 86.533 150.069 87.625 149.094 89.146C147.885 91.057 147.612 92.968 147.612 99.676C147.612 102.913 147.651 104.161 147.846 105.37C148.314 108.256 149.367 109.933 151.434 111.064C153.033 111.922 154.983 112.234 158.844 112.234C161.379 112.234 163.446 112.117 164.499 111.883C166.839 111.415 168.555 110.284 169.491 108.646C170.583 106.696 170.817 104.98 170.817 98.74C170.817 95.269 170.739 93.748 170.544 92.578C170.037 89.536 168.711 87.664 166.371 86.611C164.85 85.987 163.134 85.753 159.429 85.753ZM152.682 95.815C152.721 93.241 153.072 91.876 153.93 91.057C154.749 90.238 155.802 90.043 158.961 90.043C161.886 90.043 162.861 90.121 163.719 90.472C164.694 90.901 165.318 91.876 165.552 93.397C165.747 94.606 165.747 94.723 165.747 98.818C165.747 103.693 165.708 104.356 165.24 105.643C164.577 107.515 163.524 107.944 159.702 107.944C155.724 107.944 154.554 107.749 153.813 106.891C152.877 105.799 152.682 104.629 152.682 100.066V95.815ZM176.521 112H181.513V103.342H188.533C190.093 103.342 190.795 103.537 191.497 104.161C192.199 104.824 192.433 105.682 192.433 107.32V112H197.464V106.345C197.464 103.069 196.06 101.47 193.057 101.275V101.08C196.84 100.339 197.737 98.935 197.737 93.748C197.737 87.937 195.592 85.987 189.313 85.987H176.521V112ZM181.513 99.091V90.277H188.845C192.043 90.277 192.667 90.979 192.667 94.645C192.667 96.868 192.472 97.648 191.653 98.311C191.068 98.857 190.054 99.091 188.494 99.091H181.513ZM224.691 85.987H218.919L214.941 92.851C214.473 93.67 214.239 94.099 212.679 97.063H212.562C211.275 94.567 210.612 93.319 210.339 92.851L206.4 85.987H200.706L210.066 102.055V112H215.058V102.055L224.691 85.987Z" fill="#FF6647" fill-opacity="0.2"></path><path d="M7.66605 85.987H8.66605V84.987H7.66605V85.987ZM2.67405 85.987V84.987H1.67405V85.987H2.67405ZM2.67405 112H1.67405V113H2.67405V112ZM7.66605 112V113H8.66605V112H7.66605ZM7.66605 84.987H2.67405V86.987H7.66605V84.987ZM1.67405 85.987V112H3.67405V85.987H1.67405ZM2.67405 113H7.66605V111H2.67405V113ZM8.66605 112V85.987H6.66605V112H8.66605ZM38.3746 85.987H39.3746V84.987H38.3746V85.987ZM33.4216 85.987V84.987H32.4216V85.987H33.4216ZM33.5776 107.671V108.671H34.6133L34.577 107.636L33.5776 107.671ZM33.4216 107.671L32.5137 108.09L32.7818 108.671H33.4216V107.671ZM32.0176 104.707L31.1131 105.133L31.1161 105.14L32.0176 104.707ZM29.3656 99.169L30.2559 98.7135L30.2547 98.7113L29.3656 99.169ZM22.5796 85.987L23.4687 85.5293L23.1896 84.987H22.5796V85.987ZM14.2336 85.987V84.987H13.2336V85.987H14.2336ZM14.2336 112H13.2336V113H14.2336V112ZM19.1476 112V113H20.1476V112H19.1476ZM18.9916 90.277V89.277H17.9565L17.9922 90.3115L18.9916 90.277ZM19.1476 90.277L20.0617 89.8714L19.7979 89.277H19.1476V90.277ZM22.5406 97.726L21.6462 98.1732L21.6501 98.181L21.6541 98.1886L22.5406 97.726ZM29.9896 112L29.1031 112.463L29.3835 113H29.9896V112ZM38.3746 112V113H39.3746V112H38.3746ZM38.3746 84.987H33.4216V86.987H38.3746V84.987ZM32.4216 85.987V100.963H34.4216V85.987H32.4216ZM32.4216 100.963C32.4216 103.243 32.4221 103.257 32.5782 107.706L34.577 107.636C34.4211 103.193 34.4216 103.207 34.4216 100.963H32.4216ZM33.5776 106.671H33.4216V108.671H33.5776V106.671ZM34.3296 107.252C33.8579 106.23 33.3867 105.248 32.9191 104.274L31.1161 105.14C31.5846 106.116 32.0493 107.084 32.5137 108.09L34.3296 107.252ZM32.9221 104.281C31.6423 101.566 31.1236 100.41 30.2559 98.7135L28.4754 99.6245C29.3236 101.282 29.8189 102.388 31.1131 105.133L32.9221 104.281ZM30.2547 98.7113L23.4687 85.5293L21.6905 86.4447L28.4765 99.6267L30.2547 98.7113ZM22.5796 84.987H14.2336V86.987H22.5796V84.987ZM13.2336 85.987V112H15.2336V85.987H13.2336ZM14.2336 113H19.1476V111H14.2336V113ZM20.1476 112V97.063H18.1476V112H20.1476ZM20.1476 97.063C20.1476 94.7831 20.1471 94.7691 19.991 90.2425L17.9922 90.3115C18.1481 94.8329 18.1476 94.8189 18.1476 97.063H20.1476ZM18.9916 91.277H19.1476V89.277H18.9916V91.277ZM18.2336 90.6826C20.8442 96.5663 20.9319 96.7446 21.6462 98.1732L23.435 97.2788C22.7453 95.8994 22.677 95.7657 20.0617 89.8714L18.2336 90.6826ZM21.6541 98.1886L29.1031 112.463L30.8762 111.537L23.4272 97.2634L21.6541 98.1886ZM29.9896 113H38.3746V111H29.9896V113ZM39.3746 112V85.987H37.3746V112H39.3746ZM61.5644 85.987V84.987H60.8382L60.6135 85.6776L61.5644 85.987ZM56.7674 100.729L57.7178 101.04L57.7183 101.038L56.7674 100.729ZM54.7004 107.788V108.788H55.4612L55.6642 108.055L54.7004 107.788ZM54.5834 107.788L53.6183 108.05L53.8187 108.788H54.5834V107.788ZM52.5164 100.729L51.567 101.043L51.5707 101.054L51.5747 101.065L52.5164 100.729ZM47.6414 85.987L48.5908 85.673L48.364 84.987H47.6414V85.987ZM42.5324 85.987V84.987H41.1633L41.5798 86.2912L42.5324 85.987ZM50.8394 112L49.8868 112.304L50.109 113H50.8394V112ZM58.4054 112V113H59.1337L59.3572 112.307L58.4054 112ZM66.7904 85.987L67.7422 86.2938L68.1634 84.987H66.7904V85.987ZM60.6135 85.6776L55.8165 100.42L57.7183 101.038L62.5153 86.2964L60.6135 85.6776ZM55.817 100.418C55.1073 102.587 54.9461 103.152 53.7367 107.521L55.6642 108.055C56.8728 103.688 57.0236 103.161 57.7178 101.04L55.817 100.418ZM54.7004 106.788H54.5834V108.788H54.7004V106.788ZM55.5485 107.526C54.8096 104.804 53.8636 101.528 53.4582 100.393L51.5747 101.065C51.9492 102.114 52.8752 105.312 53.6183 108.05L55.5485 107.526ZM53.4659 100.415L48.5908 85.673L46.692 86.301L51.567 101.043L53.4659 100.415ZM47.6414 84.987H42.5324V86.987H47.6414V84.987ZM41.5798 86.2912L49.8868 112.304L51.792 111.696L43.485 85.6828L41.5798 86.2912ZM50.8394 113H58.4054V111H50.8394V113ZM59.3572 112.307L67.7422 86.2938L65.8386 85.6802L57.4536 111.693L59.3572 112.307ZM66.7904 84.987H61.5644V86.987H66.7904V84.987ZM76.2412 90.121V89.121H75.2412V90.121H76.2412ZM89.0332 90.121V91.121H90.0332V90.121H89.0332ZM89.0332 85.987H90.0332V84.987H89.0332V85.987ZM71.2492 85.987V84.987H70.2492V85.987H71.2492ZM71.2492 112H70.2492V113H71.2492V112ZM89.1502 112V113H90.1502V112H89.1502ZM89.1502 107.866H90.1502V106.866H89.1502V107.866ZM76.2412 107.866H75.2412V108.866H76.2412V107.866ZM76.2412 100.534V99.534H75.2412V100.534H76.2412ZM88.3702 100.534V101.534H89.3702V100.534H88.3702ZM88.3702 96.868H89.3702V95.868H88.3702V96.868ZM76.2412 96.868H75.2412V97.868H76.2412V96.868ZM76.2412 91.121H89.0332V89.121H76.2412V91.121ZM90.0332 90.121V85.987H88.0332V90.121H90.0332ZM89.0332 84.987H71.2492V86.987H89.0332V84.987ZM70.2492 85.987V112H72.2492V85.987H70.2492ZM71.2492 113H89.1502V111H71.2492V113ZM90.1502 112V107.866H88.1502V112H90.1502ZM89.1502 106.866H76.2412V108.866H89.1502V106.866ZM77.2412 107.866V100.534H75.2412V107.866H77.2412ZM76.2412 101.534H88.3702V99.534H76.2412V101.534ZM89.3702 100.534V96.868H87.3702V100.534H89.3702ZM88.3702 95.868H76.2412V97.868H88.3702V95.868ZM77.2412 96.868V90.121H75.2412V96.868H77.2412ZM118.947 85.987H119.947V84.987H118.947V85.987ZM113.994 85.987V84.987H112.994V85.987H113.994ZM114.15 107.671V108.671H115.186L115.149 107.636L114.15 107.671ZM113.994 107.671L113.086 108.09L113.354 108.671H113.994V107.671ZM112.59 104.707L111.685 105.133L111.688 105.14L112.59 104.707ZM109.938 99.169L110.828 98.7135L110.827 98.7113L109.938 99.169ZM103.152 85.987L104.041 85.5293L103.762 84.987H103.152V85.987ZM94.8059 85.987V84.987H93.8059V85.987H94.8059ZM94.8059 112H93.8059V113H94.8059V112ZM99.7199 112V113H100.72V112H99.7199ZM99.5639 90.277V89.277H98.5288L98.5645 90.3115L99.5639 90.277ZM99.7199 90.277L100.634 89.8714L100.37 89.277H99.7199V90.277ZM103.113 97.726L102.218 98.1732L102.222 98.181L102.226 98.1886L103.113 97.726ZM110.562 112L109.675 112.463L109.956 113H110.562V112ZM118.947 112V113H119.947V112H118.947ZM118.947 84.987H113.994V86.987H118.947V84.987ZM112.994 85.987V100.963H114.994V85.987H112.994ZM112.994 100.963C112.994 103.243 112.994 103.257 113.15 107.706L115.149 107.636C114.993 103.193 114.994 103.207 114.994 100.963H112.994ZM114.15 106.671H113.994V108.671H114.15V106.671ZM114.902 107.252C114.43 106.23 113.959 105.248 113.491 104.274L111.688 105.14C112.157 106.116 112.622 107.084 113.086 108.09L114.902 107.252ZM113.494 104.281C112.215 101.566 111.696 100.41 110.828 98.7135L109.048 99.6245C109.896 101.282 110.391 102.388 111.685 105.133L113.494 104.281ZM110.827 98.7113L104.041 85.5293L102.263 86.4447L109.049 99.6267L110.827 98.7113ZM103.152 84.987H94.8059V86.987H103.152V84.987ZM93.8059 85.987V112H95.8059V85.987H93.8059ZM94.8059 113H99.7199V111H94.8059V113ZM100.72 112V97.063H98.7199V112H100.72ZM100.72 97.063C100.72 94.7831 100.719 94.7691 100.563 90.2425L98.5645 90.3115C98.7204 94.8329 98.7199 94.8189 98.7199 97.063H100.72ZM99.5639 91.277H99.7199V89.277H99.5639V91.277ZM98.8058 90.6826C101.416 96.5663 101.504 96.7446 102.218 98.1732L104.007 97.2788C103.318 95.8994 103.249 95.7657 100.634 89.8714L98.8058 90.6826ZM102.226 98.1886L109.675 112.463L111.448 111.537L103.999 97.2634L102.226 98.1886ZM110.562 113H118.947V111H110.562V113ZM119.947 112V85.987H117.947V112H119.947ZM136.088 90.394V89.394H135.088V90.394H136.088ZM143.771 90.394V91.394H144.771V90.394H143.771ZM143.771 85.987H144.771V84.987H143.771V85.987ZM123.569 85.987V84.987H122.569V85.987H123.569ZM123.569 90.355H122.569V91.355H123.569V90.355ZM131.096 90.355H132.096V89.355H131.096V90.355ZM131.096 112H130.096V113H131.096V112ZM136.088 112V113H137.088V112H136.088ZM136.088 91.394H143.771V89.394H136.088V91.394ZM144.771 90.394V85.987H142.771V90.394H144.771ZM143.771 84.987H123.569V86.987H143.771V84.987ZM122.569 85.987V90.355H124.569V85.987H122.569ZM123.569 91.355H131.096V89.355H123.569V91.355ZM130.096 90.355V112H132.096V90.355H130.096ZM131.096 113H136.088V111H131.096V113ZM137.088 112V90.394H135.088V112H137.088ZM153.93 86.104L154.126 87.0846L154.14 87.0817L154.155 87.0784L153.93 86.104ZM149.094 89.146L148.252 88.6063L148.249 88.6114L149.094 89.146ZM147.846 105.37L146.859 105.529L146.859 105.53L147.846 105.37ZM151.434 111.064L150.954 111.941L150.961 111.945L151.434 111.064ZM164.499 111.883L164.303 110.902L164.292 110.905L164.282 110.907L164.499 111.883ZM169.491 108.646L170.359 109.142L170.363 109.135L169.491 108.646ZM170.544 92.578L169.558 92.7424V92.7424L170.544 92.578ZM166.371 86.611L166.781 85.6991L166.766 85.6922L166.751 85.6858L166.371 86.611ZM152.682 95.815L151.682 95.7998L151.682 95.8074V95.815H152.682ZM153.93 91.057L154.62 91.7804L154.629 91.7723L154.637 91.7641L153.93 91.057ZM163.719 90.472L164.122 89.5567L164.11 89.5514L164.098 89.5465L163.719 90.472ZM165.552 93.397L164.564 93.5491L164.565 93.5562L165.552 93.397ZM165.24 105.643L164.3 105.301L164.297 105.309L165.24 105.643ZM153.813 106.891L153.054 107.542L153.056 107.545L153.813 106.891ZM159.429 84.753C157.099 84.753 154.845 84.8664 153.705 85.1296L154.155 87.0784C155.042 86.8736 157.078 86.753 159.429 86.753V84.753ZM153.734 85.1234C151.376 85.5949 149.401 86.8145 148.252 88.6063L149.936 89.6857C150.737 88.4355 152.194 87.4711 154.126 87.0846L153.734 85.1234ZM148.249 88.6114C146.859 90.8075 146.612 93.0232 146.612 99.676H148.612C148.612 92.9128 148.91 91.3065 149.939 89.6806L148.249 88.6114ZM146.612 99.676C146.612 102.898 146.649 104.228 146.859 105.529L148.833 105.211C148.653 104.094 148.612 102.928 148.612 99.676H146.612ZM146.859 105.53C147.106 107.055 147.52 108.337 148.194 109.408C148.876 110.491 149.791 111.305 150.954 111.941L151.914 110.187C151.01 109.692 150.365 109.102 149.887 108.342C149.401 107.571 149.054 106.571 148.833 105.21L146.859 105.53ZM150.961 111.945C152.794 112.929 154.962 113.234 158.844 113.234V111.234C155.004 111.234 153.272 110.915 151.907 110.183L150.961 111.945ZM158.844 113.234C161.372 113.234 163.542 113.12 164.716 112.859L164.282 110.907C163.35 111.114 161.386 111.234 158.844 111.234V113.234ZM164.695 112.864C167.247 112.353 169.247 111.088 170.359 109.142L168.623 108.15C167.863 109.48 166.431 110.477 164.303 110.902L164.695 112.864ZM170.363 109.135C171.602 106.923 171.817 104.945 171.817 98.74H169.817C169.817 105.015 169.564 106.469 168.618 108.157L170.363 109.135ZM171.817 98.74C171.817 95.2743 171.741 93.6758 171.53 92.4136L169.558 92.7424C169.737 93.8202 169.817 95.2637 169.817 98.74H171.817ZM171.53 92.4136C171.259 90.7883 170.759 89.4079 169.963 88.2743C169.162 87.1324 168.098 86.2915 166.781 85.6991L165.961 87.5229C166.984 87.9835 167.753 88.6051 168.326 89.4229C168.906 90.2491 169.321 91.3257 169.558 92.7424L171.53 92.4136ZM166.751 85.6858C165.037 84.983 163.154 84.753 159.429 84.753V86.753C163.114 86.753 164.663 86.991 165.991 87.5362L166.751 85.6858ZM153.682 95.8301C153.721 93.2568 154.089 92.2879 154.62 91.7804L153.239 90.3336C152.055 91.4641 151.721 93.2252 151.682 95.7998L153.682 95.8301ZM154.637 91.7641C155.117 91.2845 155.718 91.043 158.961 91.043V89.043C155.886 89.043 154.381 89.1915 153.223 90.3499L154.637 91.7641ZM158.961 91.043C161.939 91.043 162.7 91.1354 163.34 91.3975L164.098 89.5465C163.022 89.1065 161.833 89.043 158.961 89.043V91.043ZM163.316 91.3873C163.861 91.627 164.358 92.2157 164.564 93.5491L166.54 93.2449C166.277 91.5363 165.527 90.175 164.122 89.5567L163.316 91.3873ZM164.565 93.5562C164.744 94.67 164.747 94.6998 164.747 98.818H166.747C166.747 94.7462 166.75 94.542 166.539 93.2378L164.565 93.5562ZM164.747 98.818C164.747 103.753 164.695 104.216 164.3 105.301L166.18 105.985C166.721 104.496 166.747 103.633 166.747 98.818H164.747ZM164.297 105.309C164.025 106.077 163.752 106.373 163.273 106.572C162.657 106.827 161.63 106.944 159.702 106.944V108.944C161.596 108.944 163.006 108.847 164.038 108.419C165.207 107.935 165.791 107.081 166.183 105.977L164.297 105.309ZM159.702 106.944C157.704 106.944 156.501 106.893 155.718 106.755C154.987 106.625 154.747 106.442 154.57 106.237L153.056 107.545C153.62 108.198 154.336 108.541 155.369 108.724C156.351 108.897 157.722 108.944 159.702 108.944V106.944ZM154.572 106.24C154.236 105.848 154.022 105.457 153.883 104.617C153.733 103.711 153.682 102.358 153.682 100.066H151.682C151.682 102.337 151.729 103.851 151.91 104.944C152.102 106.102 152.454 106.842 153.054 107.542L154.572 106.24ZM153.682 100.066V95.815H151.682V100.066H153.682ZM176.521 112H175.521V113H176.521V112ZM181.513 112V113H182.513V112H181.513ZM181.513 103.342V102.342H180.513V103.342H181.513ZM191.497 104.161L192.183 103.434L192.172 103.424L192.161 103.414L191.497 104.161ZM192.433 112H191.433V113H192.433V112ZM197.464 112V113H198.464V112H197.464ZM193.057 101.275H192.057V102.212L192.992 102.273L193.057 101.275ZM193.057 101.08L192.865 100.099L192.057 100.257V101.08H193.057ZM176.521 85.987V84.987H175.521V85.987H176.521ZM181.513 99.091H180.513V100.091H181.513V99.091ZM181.513 90.277V89.277H180.513V90.277H181.513ZM191.653 98.311L191.024 97.5338L190.996 97.5559L190.97 97.5799L191.653 98.311ZM176.521 113H181.513V111H176.521V113ZM182.513 112V103.342H180.513V112H182.513ZM181.513 104.342H188.533V102.342H181.513V104.342ZM188.533 104.342C189.285 104.342 189.743 104.391 190.07 104.481C190.364 104.563 190.582 104.686 190.832 104.908L192.161 103.414C191.71 103.012 191.226 102.726 190.603 102.554C190.013 102.391 189.34 102.342 188.533 102.342V104.342ZM190.81 104.888C191.201 105.257 191.433 105.753 191.433 107.32H193.433C193.433 105.611 193.197 104.391 192.183 103.434L190.81 104.888ZM191.433 107.32V112H193.433V107.32H191.433ZM192.433 113H197.464V111H192.433V113ZM198.464 112V106.345H196.464V112H198.464ZM198.464 106.345C198.464 104.583 198.089 103.086 197.14 101.998C196.179 100.895 194.783 100.385 193.122 100.277L192.992 102.273C194.334 102.36 195.14 102.747 195.632 103.312C196.137 103.891 196.464 104.831 196.464 106.345H198.464ZM194.057 101.275V101.08H192.057V101.275H194.057ZM193.249 102.061C195.209 101.677 196.732 101.07 197.658 99.6193C198.53 98.2543 198.737 96.3289 198.737 93.748H196.737C196.737 96.3541 196.495 97.7242 195.972 98.5432C195.504 99.2762 194.687 99.7416 192.865 100.099L193.249 102.061ZM198.737 93.748C198.737 90.7665 198.196 88.4593 196.556 86.952C194.94 85.4677 192.497 84.987 189.313 84.987V86.987C192.407 86.987 194.176 87.4813 195.203 88.4247C196.205 89.3452 196.737 90.9185 196.737 93.748H198.737ZM189.313 84.987H176.521V86.987H189.313V84.987ZM175.521 85.987V112H177.521V85.987H175.521ZM182.513 99.091V90.277H180.513V99.091H182.513ZM181.513 91.277H188.845V89.277H181.513V91.277ZM188.845 91.277C190.486 91.277 190.98 91.4911 191.203 91.7456C191.319 91.8774 191.446 92.115 191.536 92.5993C191.627 93.0877 191.667 93.7445 191.667 94.645H193.667C193.667 93.7125 193.628 92.9068 193.502 92.2325C193.376 91.5541 193.147 90.9288 192.707 90.4269C191.818 89.4139 190.402 89.277 188.845 89.277V91.277ZM191.667 94.645C191.667 95.756 191.614 96.3866 191.502 96.8006C191.409 97.143 191.279 97.3272 191.024 97.5338L192.282 99.0882C192.846 98.6318 193.223 98.0945 193.432 97.3254C193.621 96.6279 193.667 95.757 193.667 94.645H191.667ZM190.97 97.5799C190.689 97.8428 190.03 98.091 188.494 98.091V100.091C190.077 100.091 191.447 99.8712 192.335 99.0421L190.97 97.5799ZM188.494 98.091H181.513V100.091H188.494V98.091ZM224.691 85.987L225.549 86.5012L226.457 84.987H224.691V85.987ZM218.919 85.987V84.987H218.343L218.054 85.4856L218.919 85.987ZM214.941 92.851L214.076 92.3496L214.073 92.3549L214.941 92.851ZM212.679 97.063V98.063H213.283L213.564 97.5287L212.679 97.063ZM212.562 97.063L211.673 97.5213L211.953 98.063H212.562V97.063ZM210.339 92.851L209.472 93.3487L209.475 93.3549L210.339 92.851ZM206.4 85.987L207.268 85.4893L206.979 84.987H206.4V85.987ZM200.706 85.987V84.987H198.966L199.842 86.4903L200.706 85.987ZM210.066 102.055H211.066V101.785L210.93 101.552L210.066 102.055ZM210.066 112H209.066V113H210.066V112ZM215.058 112V113H216.058V112H215.058ZM215.058 102.055L214.201 101.541L214.058 101.778V102.055H215.058ZM224.691 84.987H218.919V86.987H224.691V84.987ZM218.054 85.4856L214.076 92.3496L215.806 93.3524L219.784 86.4884L218.054 85.4856ZM214.073 92.3549C213.595 93.1912 213.353 93.6353 211.794 96.5973L213.564 97.5287C215.125 94.5627 215.351 94.1488 215.809 93.3471L214.073 92.3549ZM212.679 96.063H212.562V98.063H212.679V96.063ZM213.451 96.6047C212.169 94.1178 211.492 92.8428 211.203 92.3471L209.475 93.3549C209.732 93.7952 210.382 95.0162 211.673 97.5213L213.451 96.6047ZM211.207 92.3533L207.268 85.4893L205.533 86.4847L209.472 93.3487L211.207 92.3533ZM206.4 84.987H200.706V86.987H206.4V84.987ZM199.842 86.4903L209.202 102.558L210.93 101.552L201.57 85.4836L199.842 86.4903ZM209.066 102.055V112H211.066V102.055H209.066ZM210.066 113H215.058V111H210.066V113ZM216.058 112V102.055H214.058V112H216.058ZM215.916 102.569L225.549 86.5012L223.834 85.4728L214.201 101.541L215.916 102.569Z" fill="#FF6647"></path><defs><filter id="filter0_d_3240_89710" x="78" y="27.7919" width="42.002" height="39.7904" filterUnits="userSpaceOnUse" color-interpolation-filters="sRGB"><feFlood flood-opacity="0" result="BackgroundImageFix"></feFlood><feColorMatrix in="SourceAlpha" type="matrix" values="0 0 0 0 0 0 0 0 0 0 0 0 0 0 0 0 0 0 127 0" result="hardAlpha"></feColorMatrix><feOffset></feOffset><feGaussianBlur stdDeviation="3"></feGaussianBlur><feComposite in2="hardAlpha" operator="out"></feComposite><feColorMatrix type="matrix" values="0 0 0 0 1 0 0 0 0 0.4 0 0 0 0 0.278431 0 0 0 0.5 0"></feColorMatrix><feBlend mode="normal" in2="BackgroundImageFix" result="effect1_dropShadow_3240_89710"></feBlend><feBlend mode="normal" in="SourceGraphic" in2="effect1_dropShadow_3240_89710" result="shape"></feBlend></filter><filter id="filter1_d_3240_89710" x="92" y="27.7919" width="28.002" height="39.7904" filterUnits="userSpaceOnUse" color-interpolation-filters="sRGB"><feFlood flood-opacity="0" result="BackgroundImageFix"></feFlood><feColorMatrix in="SourceAlpha" type="matrix" values="0 0 0 0 0 0 0 0 0 0 0 0 0 0 0 0 0 0 127 0" result="hardAlpha"></feColorMatrix><feOffset></feOffset><feGaussianBlur stdDeviation="3"></feGaussianBlur><feComposite in2="hardAlpha" operator="out"></feComposite><feColorMatrix type="matrix" values="0 0 0 0 1 0 0 0 0 0.4 0 0 0 0 0.278431 0 0 0 0.5 0"></feColorMatrix><feBlend mode="normal" in2="BackgroundImageFix" result="effect1_dropShadow_3240_89710"></feBlend><feBlend mode="normal" in="SourceGraphic" in2="effect1_dropShadow_3240_89710" result="shape"></feBlend></filter><filter id="filter2_d_3240_89710" x="106" y="27.7919" width="14" height="39.7904" filterUnits="userSpaceOnUse" color-interpolation-filters="sRGB"><feFlood flood-opacity="0" result="BackgroundImageFix"></feFlood><feColorMatrix in="SourceAlpha" type="matrix" values="0 0 0 0 0 0 0 0 0 0 0 0 0 0 0 0 0 0 127 0" result="hardAlpha"></feColorMatrix><feOffset></feOffset><feGaussianBlur stdDeviation="3"></feGaussianBlur><feComposite in2="hardAlpha" operator="out"></feComposite><feColorMatrix type="matrix" values="0 0 0 0 1 0 0 0 0 0.4 0 0 0 0 0.278431 0 0 0 0.5 0"></feColorMatrix><feBlend mode="normal" in2="BackgroundImageFix" result="effect1_dropShadow_3240_89710"></feBlend><feBlend mode="normal" in="SourceGraphic" in2="effect1_dropShadow_3240_89710" result="shape"></feBlend></filter><filter id="filter3_d_3240_89710" x="106" y="27.7919" width="28" height="39.7904" filterUnits="userSpaceOnUse" color-interpolation-filters="sRGB"><feFlood flood-opacity="0" result="BackgroundImageFix"></feFlood><feColorMatrix in="SourceAlpha" type="matrix" values="0 0 0 0 0 0 0 0 0 0 0 0 0 0 0 0 0 0 127 0" result="hardAlpha"></feColorMatrix><feOffset></feOffset><feGaussianBlur stdDeviation="3"></feGaussianBlur><feComposite in2="hardAlpha" operator="out"></feComposite><feColorMatrix type="matrix" values="0 0 0 0 1 0 0 0 0 0.4 0 0 0 0 0.278431 0 0 0 0.5 0"></feColorMatrix><feBlend mode="normal" in2="BackgroundImageFix" result="effect1_dropShadow_3240_89710"></feBlend><feBlend mode="normal" in="SourceGraphic" in2="effect1_dropShadow_3240_89710" result="shape"></feBlend></filter><filter id="filter4_d_3240_89710" x="106" y="27.7919" width="42" height="39.7904" filterUnits="userSpaceOnUse" color-interpolation-filters="sRGB"><feFlood flood-opacity="0" result="BackgroundImageFix"></feFlood><feColorMatrix in="SourceAlpha" type="matrix" values="0 0 0 0 0 0 0 0 0 0 0 0 0 0 0 0 0 0 127 0" result="hardAlpha"></feColorMatrix><feOffset></feOffset><feGaussianBlur stdDeviation="3"></feGaussianBlur><feComposite in2="hardAlpha" operator="out"></feComposite><feColorMatrix type="matrix" values="0 0 0 0 1 0 0 0 0 0.4 0 0 0 0 0.278431 0 0 0 0.5 0"></feColorMatrix><feBlend mode="normal" in2="BackgroundImageFix" result="effect1_dropShadow_3240_89710"></feBlend><feBlend mode="normal" in="SourceGraphic" in2="effect1_dropShadow_3240_89710" result="shape"></feBlend></filter><filter id="filter5_d_3240_89710" x="106" y="0" width="42" height="39.7921" filterUnits="userSpaceOnUse" color-interpolation-filters="sRGB"><feFlood flood-opacity="0" result="BackgroundImageFix"></feFlood><feColorMatrix in="SourceAlpha" type="matrix" values="0 0 0 0 0 0 0 0 0 0 0 0 0 0 0 0 0 0 127 0" result="hardAlpha"></feColorMatrix><feOffset></feOffset><feGaussianBlur stdDeviation="3"></feGaussianBlur><feComposite in2="hardAlpha" operator="out"></feComposite><feColorMatrix type="matrix" values="0 0 0 0 1 0 0 0 0 0.4 0 0 0 0 0.278431 0 0 0 0.5 0"></feColorMatrix><feBlend mode="normal" in2="BackgroundImageFix" result="effect1_dropShadow_3240_89710"></feBlend><feBlend mode="normal" in="SourceGraphic" in2="effect1_dropShadow_3240_89710" result="shape"></feBlend></filter><filter id="filter6_d_3240_89710" x="106" y="0" width="28" height="39.7921" filterUnits="userSpaceOnUse" color-interpolation-filters="sRGB"><feFlood flood-opacity="0" result="BackgroundImageFix"></feFlood><feColorMatrix in="SourceAlpha" type="matrix" values="0 0 0 0 0 0 0 0 0 0 0 0 0 0 0 0 0 0 127 0" result="hardAlpha"></feColorMatrix><feOffset></feOffset><feGaussianBlur stdDeviation="3"></feGaussianBlur><feComposite in2="hardAlpha" operator="out"></feComposite><feColorMatrix type="matrix" values="0 0 0 0 1 0 0 0 0 0.4 0 0 0 0 0.278431 0 0 0 0.5 0"></feColorMatrix><feBlend mode="normal" in2="BackgroundImageFix" result="effect1_dropShadow_3240_89710"></feBlend><feBlend mode="normal" in="SourceGraphic" in2="effect1_dropShadow_3240_89710" result="shape"></feBlend></filter><filter id="filter7_d_3240_89710" x="106" y="0" width="14" height="39.7921" filterUnits="userSpaceOnUse" color-interpolation-filters="sRGB"><feFlood flood-opacity="0" result="BackgroundImageFix"></feFlood><feColorMatrix in="SourceAlpha" type="matrix" values="0 0 0 0 0 0 0 0 0 0 0 0 0 0 0 0 0 0 127 0" result="hardAlpha"></feColorMatrix><feOffset></feOffset><feGaussianBlur stdDeviation="3"></feGaussianBlur><feComposite in2="hardAlpha" operator="out"></feComposite><feColorMatrix type="matrix" values="0 0 0 0 1 0 0 0 0 0.4 0 0 0 0 0.278431 0 0 0 0.5 0"></feColorMatrix><feBlend mode="normal" in2="BackgroundImageFix" result="effect1_dropShadow_3240_89710"></feBlend><feBlend mode="normal" in="SourceGraphic" in2="effect1_dropShadow_3240_89710" result="shape"></feBlend></filter><filter id="filter8_d_3240_89710" x="92" y="0" width="28.002" height="39.7921" filterUnits="userSpaceOnUse" color-interpolation-filters="sRGB"><feFlood flood-opacity="0" result="BackgroundImageFix"></feFlood><feColorMatrix in="SourceAlpha" type="matrix" values="0 0 0 0 0 0 0 0 0 0 0 0 0 0 0 0 0 0 127 0" result="hardAlpha"></feColorMatrix><feOffset></feOffset><feGaussianBlur stdDeviation="3"></feGaussianBlur><feComposite in2="hardAlpha" operator="out"></feComposite><feColorMatrix type="matrix" values="0 0 0 0 1 0 0 0 0 0.4 0 0 0 0 0.278431 0 0 0 0.5 0"></feColorMatrix><feBlend mode="normal" in2="BackgroundImageFix" result="effect1_dropShadow_3240_89710"></feBlend><feBlend mode="normal" in="SourceGraphic" in2="effect1_dropShadow_3240_89710" result="shape"></feBlend></filter><filter id="filter9_d_3240_89710" x="78" y="0" width="42.002" height="39.7921" filterUnits="userSpaceOnUse" color-interpolation-filters="sRGB"><feFlood flood-opacity="0" result="BackgroundImageFix"></feFlood><feColorMatrix in="SourceAlpha" type="matrix" values="0 0 0 0 0 0 0 0 0 0 0 0 0 0 0 0 0 0 127 0" result="hardAlpha"></feColorMatrix><feOffset></feOffset><feGaussianBlur stdDeviation="3"></feGaussianBlur><feComposite in2="hardAlpha" operator="out"></feComposite><feColorMatrix type="matrix" values="0 0 0 0 1 0 0 0 0 0.4 0 0 0 0 0.278431 0 0 0 0.5 0"></feColorMatrix><feBlend mode="normal" in2="BackgroundImageFix" result="effect1_dropShadow_3240_89710"></feBlend><feBlend mode="normal" in="SourceGraphic" in2="effect1_dropShadow_3240_89710" result="shape"></feBlend></filter></defs></svg>