<svg width="76" height="17" viewBox="0 0 76 17" fill="none" xmlns="http://www.w3.org/2000/svg" data-v-39f066c9=""><path d="M19.5176 8.34958C19.5176 6.37244 20.9971 5.18286 22.5708 5.18286C24.11 5.18286 25.0249 6.08984 25.2965 7.15125L24.3301 7.47657C24.1507 6.74048 23.586 6.15007 22.5688 6.15007C21.568 6.15007 20.5677 6.87741 20.5677 8.34958C20.5677 9.77028 21.5448 10.5234 22.577 10.5234C23.5947 10.5234 24.1764 9.87323 24.3816 9.1881L25.3222 9.49695C25.0486 10.5239 24.125 11.5081 22.577 11.5081C20.9457 11.5075 19.5176 10.3267 19.5176 8.34958Z" fill="#636363" data-v-39f066c9=""></path> <path d="M27.1346 11.3794H26.1426V5.18286H27.1346V7.61349C27.4169 7.24545 27.887 7.09102 28.3231 7.09102C29.3516 7.09102 29.8453 7.82711 29.8453 8.74336V11.3794H28.8538V8.91425C28.8538 8.39951 28.6229 7.98771 27.9986 7.98771C27.4509 7.98771 27.1521 8.39951 27.1346 8.92918V11.3794Z" fill="#636363" data-v-39f066c9=""></path> <path d="M32.0031 8.99147L33.0717 8.82881C33.3114 8.79484 33.3803 8.67438 33.3803 8.52923C33.3803 8.17817 33.1407 7.89609 32.5935 7.89609C32.072 7.89609 31.7809 8.22964 31.7382 8.64916L30.8321 8.44326C30.9087 7.72262 31.5588 7.08228 32.5847 7.08228C33.8673 7.08228 34.3549 7.80961 34.3549 8.6399V10.7117C34.352 10.9359 34.3692 11.1598 34.4063 11.3809H33.4806C33.4724 11.3552 33.4379 11.1843 33.4379 10.8502C33.2415 11.1668 32.8311 11.5091 32.1553 11.5091C31.281 11.5091 30.7441 10.9099 30.7441 10.2511C30.7457 9.50467 31.2934 9.0939 32.0031 8.99147ZM33.3798 9.65034V9.46195L32.2942 9.62564C31.9856 9.67711 31.7382 9.84852 31.7382 10.1919C31.7382 10.4739 31.9522 10.7308 32.3456 10.7308C32.901 10.7287 33.3798 10.4636 33.3798 9.65034Z" fill="#636363" data-v-39f066c9=""></path> <path d="M35.9875 5.09595C36.0729 5.09588 36.1574 5.11266 36.2363 5.14534C36.3152 5.17801 36.3869 5.22593 36.4473 5.28636C36.5077 5.34679 36.5556 5.41855 36.5882 5.49752C36.6208 5.57649 36.6376 5.66112 36.6375 5.74659C36.6367 5.8741 36.5983 5.99853 36.527 6.10422C36.4557 6.2099 36.3548 6.29213 36.2369 6.34055C36.1191 6.38897 35.9895 6.40143 35.8646 6.37635C35.7397 6.35127 35.625 6.28978 35.5349 6.19961C35.4448 6.10945 35.3834 5.99463 35.3583 5.8696C35.3333 5.74457 35.3457 5.61492 35.3941 5.49695C35.4425 5.37899 35.5246 5.27797 35.6302 5.20662C35.7358 5.13527 35.8601 5.09676 35.9875 5.09595ZM35.5005 11.3784V7.20898H36.4838V11.3784H35.5005Z" fill="#636363" data-v-39f066c9=""></path> <path d="M38.7127 11.3794H37.7207V7.20997H38.687V7.76744C38.9606 7.28821 39.4584 7.09106 39.9187 7.09106C40.9365 7.09106 41.4235 7.82715 41.4235 8.7434V11.3794H40.4314V8.91429C40.4314 8.39955 40.2005 7.98775 39.5767 7.98775C39.011 7.98775 38.7127 8.42426 38.7127 8.97246V11.3794Z" fill="#636363" data-v-39f066c9=""></path> <path d="M42.5723 11.3794V5.18286H43.5643V11.3794H42.5723Z" fill="#636363" data-v-39f066c9=""></path> <path d="M45.2844 5.09595C45.4568 5.09595 45.6221 5.1645 45.744 5.28652C45.8659 5.40853 45.9344 5.57403 45.9344 5.74659C45.9336 5.8741 45.8951 5.99853 45.8238 6.10421C45.7526 6.2099 45.6516 6.29213 45.5338 6.34055C45.4159 6.38897 45.2864 6.40143 45.1615 6.37635C45.0366 6.35127 44.9219 6.28978 44.8318 6.19961C44.7417 6.10945 44.6802 5.99463 44.6552 5.8696C44.6301 5.74457 44.6426 5.61492 44.691 5.49695C44.7393 5.37899 44.8215 5.27797 44.9271 5.20662C45.0327 5.13527 45.157 5.09676 45.2844 5.09595ZM44.7968 11.3784V7.20898H45.7801V11.3784H44.7968Z" fill="#636363" data-v-39f066c9=""></path> <path d="M48.0096 11.3794H47.0176V7.20997H47.9865V7.76744C48.2601 7.28821 48.7579 7.09106 49.2176 7.09106C50.2354 7.09106 50.7229 7.82715 50.7229 8.7434V11.3794H49.7283V8.91429C49.7283 8.39955 49.4974 7.98775 48.8731 7.98775C48.3074 7.98775 48.0096 8.42426 48.0096 8.97246V11.3794Z" fill="#636363" data-v-39f066c9=""></path> <path d="M54.0579 8.97448L55.8023 11.3794H54.5881L53.3657 9.67711L52.8514 10.2166V11.3804H51.8691V5.18286H52.8524V8.89727L54.4513 7.21096H55.7684L54.0579 8.97448Z" fill="#636363" data-v-39f066c9=""></path> <path d="M58.627 11.3794V5.31104H59.6555V10.4034H62.4326V11.3814L58.627 11.3794Z" fill="#636363" data-v-39f066c9=""></path> <path d="M64.2599 8.99147L65.329 8.82881C65.5682 8.79484 65.6376 8.67438 65.6376 8.52923C65.6376 8.17817 65.3985 7.89609 64.8513 7.89609C64.3293 7.89609 64.0387 8.22964 63.996 8.64916L63.0894 8.44326C63.1665 7.72262 63.8166 7.08228 64.8425 7.08228C66.1251 7.08228 66.6127 7.80961 66.6127 8.6399V10.7117C66.6098 10.9359 66.627 11.1598 66.6641 11.3809H65.7384C65.7297 11.3552 65.6957 11.1843 65.6957 10.8502C65.4988 11.1668 65.0884 11.5091 64.4131 11.5091C63.5389 11.5091 63.002 10.9099 63.002 10.2511C63.003 9.50467 63.5502 9.0939 64.2599 8.99147ZM65.6366 9.65034V9.46195L64.5509 9.62564C64.2424 9.67711 63.995 9.84852 63.995 10.1919C63.995 10.4739 64.209 10.7308 64.6024 10.7308C65.1578 10.7287 65.6366 10.4636 65.6366 9.65034Z" fill="#636363" data-v-39f066c9=""></path> <path d="M67.7598 11.3794V5.18286H68.7369V7.72468C68.9251 7.39936 69.4054 7.09977 70.0452 7.09977C71.2938 7.09977 71.9691 8.05 71.9691 9.27355C71.9691 10.5321 71.2249 11.4818 70.0112 11.4818C69.4209 11.4818 68.9678 11.2244 68.7256 10.8229V11.3794H67.7598ZM69.8462 7.98205C69.2136 7.98205 68.7261 8.45253 68.7261 9.28281C68.7261 10.1064 69.2136 10.6011 69.8462 10.6011C70.4962 10.6011 70.9668 10.1049 70.9668 9.28281C70.9668 8.45201 70.505 7.98153 69.8462 7.98153V7.98205Z" fill="#636363" data-v-39f066c9=""></path> <path d="M73.3685 10.0102C73.4024 10.3865 73.6848 10.7206 74.215 10.7206C74.6264 10.7206 74.8388 10.4977 74.8388 10.2408C74.8388 10.0184 74.6845 9.84754 74.3518 9.77754L73.7347 9.64061C72.9993 9.47796 72.6146 8.99873 72.6146 8.42479C72.6146 7.69745 73.2831 7.0813 74.1451 7.0813C75.3083 7.0813 75.6843 7.83437 75.7532 8.24514L74.9149 8.48501C74.881 8.24514 74.701 7.86011 74.1435 7.86011C73.7933 7.86011 73.5454 8.08248 73.5454 8.33934C73.5454 8.56222 73.7074 8.72437 73.964 8.77584L74.5971 8.90453C75.3834 9.07542 75.7938 9.55465 75.7938 10.1708C75.7938 10.8045 75.2795 11.5061 74.2207 11.5061C73.0152 11.5061 72.5534 10.719 72.502 10.248L73.3685 10.0102Z" fill="#636363" data-v-39f066c9=""></path> <path d="M15.1773 4.22093L7.87305 0.00773253C7.85854 -2.4453e-06 7.84167 -0.0020223 7.82574 0.00207033C7.81366 0.00333611 7.80213 0.00777559 7.79231 0.014939L7.77226 0.0303814L0.501461 4.23225C0.49173 4.23763 0.48363 4.24554 0.478017 4.25514C0.472405 4.26475 0.469489 4.27569 0.469576 4.28682L0.462891 12.724C0.462911 12.7351 0.465818 12.7459 0.471321 12.7555C0.476824 12.765 0.484732 12.773 0.494261 12.7786L7.79694 16.9913C7.80651 16.997 7.81743 17 7.82857 17C7.83971 17 7.85064 16.997 7.8602 16.9913L15.1629 12.7703L15.1711 12.7657L15.1778 12.7606C15.1854 12.7549 15.1916 12.7475 15.1958 12.739C15.2001 12.7305 15.2024 12.7212 15.2025 12.7117L15.2087 4.27446C15.2084 4.26361 15.2053 4.25302 15.1998 4.24366C15.1944 4.2343 15.1866 4.22648 15.1773 4.22093ZM1.38293 13.1461L8.37704 16.4029C8.19859 16.5527 8.00985 16.702 7.81134 16.8518L1.38293 13.1461ZM14.2912 3.85391L7.29707 0.596087C7.47398 0.446811 7.66255 0.296333 7.86277 0.144655L14.2912 3.85391ZM15.0796 11.781L14.411 4.07423C14.6287 4.15212 14.8531 4.23791 15.0842 4.3316L15.0796 11.781ZM3.64624 13.4972L1.7676 8.31933L4.19034 13.5296C4.03606 13.5296 3.87509 13.5214 3.71104 13.5085L3.64624 13.4972ZM4.32405 13.5193L2.17851 8.90512L4.82701 13.5044C4.69365 13.516 4.55651 13.5238 4.4156 13.5275L4.32405 13.5193ZM5.25592 2.95156L10.304 3.38961L5.02707 3.39373C5.09135 3.25115 5.16643 3.10753 5.24563 2.9634L5.25592 2.95156ZM11.347 3.48021L13.4925 8.09439L10.844 3.49462C10.9921 3.4833 11.1464 3.47729 11.3069 3.47661L11.347 3.48021ZM4.96021 13.4864L2.61821 9.41986L5.4174 13.4282C5.28935 13.4514 5.15718 13.4714 5.0209 13.4874L4.96021 13.4864ZM10.7108 3.51521L13.0533 7.5817L10.2505 3.56669C10.3709 3.54455 10.4958 3.52654 10.6249 3.51161L10.7108 3.51521ZM10.7031 13.4802L6.02733 13.4864L10.8821 13.0576C10.8337 13.1878 10.7792 13.3211 10.718 13.4565L10.7031 13.4802ZM10.1184 3.60014L12.5941 7.1452L9.70747 3.6964C9.82781 3.66191 9.95278 3.63051 10.0834 3.60323L10.1184 3.60014ZM11.2657 10.9126L8.90572 12.0157L11.2626 10.6553C11.2652 10.7335 11.2662 10.8195 11.2657 10.9126ZM11.2595 10.2167C11.2549 10.2898 11.257 10.385 11.2595 10.5024L8.11168 12.3215C8.10286 12.3227 8.09433 12.3255 8.08648 12.3297L7.91163 12.4327L7.83603 12.4764L4.6681 10.6439C4.66397 10.6401 4.6595 10.6366 4.65473 10.6336C4.58633 10.5925 4.50971 10.5487 4.42691 10.5013L4.42022 10.4972V6.82915C4.42328 6.82145 4.42486 6.81324 4.42485 6.80495C4.42485 6.71745 4.42485 6.63045 4.42485 6.54346L7.61335 4.7017C7.62159 4.70038 7.62957 4.69778 7.637 4.69398C7.70386 4.6564 7.77534 4.61471 7.84837 4.57147L11.0055 6.39573C11.011 6.40216 11.0174 6.40771 11.0245 6.4122C11.0991 6.45698 11.1788 6.50331 11.2662 6.55273V10.1992C11.2629 10.2049 11.2606 10.2112 11.2595 10.2177V10.2167ZM7.46421 12.6839L5.27495 11.1479L7.70386 12.5516C7.62843 12.5948 7.54855 12.6393 7.46421 12.6849V12.6839ZM7.98208 4.49117C8.06437 4.43969 8.15076 4.38822 8.23922 4.33675L10.6969 6.06423L7.98208 4.49117ZM4.4264 6.37977C4.4264 6.27682 4.43102 6.17387 4.43514 6.07093L7.15256 4.80002L4.4264 6.37977ZM4.28754 10.421C4.20783 10.3747 4.12349 10.3253 4.03503 10.2713L4.28754 7.38353V10.421ZM11.6324 6.76635L11.3969 9.46619V6.62891C11.4719 6.67077 11.5505 6.71676 11.6324 6.76686V6.76635ZM7.33924 12.7508C7.24616 12.7997 7.14742 12.8486 7.04405 12.8975L4.50148 10.7582L7.33924 12.7508ZM8.36264 4.2724C8.45316 4.22093 8.54778 4.16945 8.64652 4.12055L11.169 6.24234L8.36264 4.2724ZM3.64161 10.017L4.21709 6.74318L3.91521 10.1946C3.8271 10.1403 3.7359 10.0805 3.64161 10.0149V10.017ZM11.2626 11.0526C11.2601 11.1556 11.2549 11.2642 11.2462 11.38L8.12968 12.5186L11.2626 11.0526ZM12.0232 7.01548L11.4529 10.2527L11.7512 6.83996C11.8402 6.89452 11.9312 6.95268 12.0243 7.01548H12.0232ZM4.44182 5.93091C4.44731 5.82247 4.45468 5.71386 4.46394 5.60508L7.54083 4.48139L4.44182 5.93091ZM8.76943 4.05775C8.87229 4.00628 8.97514 3.96047 9.0888 3.91414L11.6447 6.47603L8.76943 4.05775ZM6.91805 12.9551C6.81519 13.002 6.70411 13.0483 6.58943 13.0926L4.02629 10.523L6.91805 12.9551ZM11.2379 11.518C11.2271 11.6307 11.2127 11.7486 11.1937 11.8711L7.65449 12.8234L11.2379 11.518ZM12.4208 7.30271L11.4879 10.7839L12.1369 7.09372C12.2302 7.15858 12.3244 7.22824 12.4197 7.30271H12.4208ZM4.47679 5.4661C4.48879 5.35045 4.50319 5.23429 4.51999 5.11762L7.98311 4.18593L4.47679 5.4661ZM3.52796 9.93461C3.4359 9.86821 3.34128 9.79614 3.24562 9.71893L4.18314 6.21557L3.52796 9.93461ZM6.45932 13.141C6.34206 13.1837 6.21967 13.2249 6.09264 13.263L3.54853 10.2218L6.45932 13.141ZM11.168 12.0085C11.1459 12.131 11.1197 12.2577 11.0873 12.3884L7.16542 13.0838L11.168 12.0085ZM12.8137 7.64193L11.4663 11.3481L12.5257 7.39125C12.622 7.46777 12.7184 7.55082 12.8147 7.64038L12.8137 7.64193ZM9.21531 3.86061C9.33051 3.81582 9.45085 3.7731 9.5753 3.73398L12.1199 6.77407L9.21531 3.86061ZM4.54159 4.98172C4.56268 4.85715 4.58685 4.73259 4.61513 4.60699L8.48195 3.92186L4.54159 4.98172ZM2.85169 9.37251L4.20423 5.65347L3.13711 9.63091C3.04403 9.55061 2.94786 9.46464 2.85169 9.37251ZM13.203 8.03417L11.3855 11.9365L12.914 7.73201C13.0112 7.82878 13.1073 7.9271 13.203 8.03674V8.03417ZM4.64702 4.47418C4.6813 4.34069 4.71936 4.2072 4.76119 4.07371L9.03583 3.69589L4.64702 4.47418ZM2.46547 8.96843L4.286 5.06048L2.75295 9.27625C2.65678 9.17999 2.56061 9.07756 2.46547 8.96843ZM5.96253 13.3005C5.83139 13.3366 5.69511 13.37 5.55111 13.3988L3.07746 9.85482L5.96253 13.3005ZM10.9268 12.9248L6.6244 13.3052L11.0549 12.5202C11.0214 12.6437 10.9829 12.7698 10.9386 12.8995L10.9268 12.9248ZM13.2925 8.13763C13.3881 8.24984 13.4824 8.36995 13.5753 8.49795L11.2369 12.5547L13.2925 8.13763ZM4.80696 3.94091C4.85581 3.80038 4.90981 3.65883 4.97307 3.51727L9.64627 3.51367L4.80696 3.94091ZM2.37599 8.86342C2.28085 8.74966 2.18725 8.62921 2.09468 8.50053L4.43462 4.44484L2.37599 8.86342ZM10.6455 13.6058C10.5769 13.7509 10.4989 13.8983 10.4115 14.0479L5.36546 13.6099L10.6455 13.6058ZM13.654 8.61274C13.7455 8.74452 13.835 8.88401 13.9225 9.03277L11.0127 13.1919L13.654 8.61274ZM2.01548 8.38728C1.92446 8.25448 1.83497 8.11395 1.74857 7.96519L4.65628 3.80913L2.01548 8.38728ZM10.3431 14.1674C10.2531 14.3166 10.1544 14.4685 10.0459 14.6214L4.65113 13.6737L10.3431 14.1674ZM13.9945 9.15219C14.0798 9.30404 14.1621 9.46413 14.2408 9.634L10.7154 13.839L13.9945 9.15219ZM11.4848 3.47866C11.6591 3.48278 11.8402 3.49359 12.0289 3.51264L13.9034 8.6812L11.4848 3.47866ZM5.32432 2.83111C5.4138 2.68012 5.5122 2.52861 5.61951 2.37659L11.0194 3.32527L5.32432 2.83111ZM1.67966 7.84474C1.59498 7.69375 1.51321 7.53246 1.43435 7.36088L4.95764 3.15952L1.67966 7.84474ZM9.96409 14.7346C9.85301 14.8863 9.73198 15.0395 9.60101 15.1943L3.89258 13.6681L9.96409 14.7346ZM14.2968 9.76114C14.373 9.93272 14.4453 10.1141 14.5139 10.3052L10.3297 14.4932L14.2968 9.76114ZM12.1678 3.52757C12.3544 3.5497 12.5483 3.57904 12.7494 3.61713L14.2773 9.34316L12.1678 3.52757ZM5.70076 2.26489C5.81219 2.11253 5.93373 1.95931 6.06538 1.80523L11.7795 3.33196L5.70076 2.26489ZM1.37675 7.23528C1.30064 7.0637 1.22813 6.88268 1.15922 6.69222L5.34129 2.50631L1.37675 7.23528ZM3.51047 13.491C3.32225 13.4714 3.12837 13.4438 2.92883 13.4081L1.39424 7.65737L3.51047 13.491ZM9.5105 15.2998C9.37679 15.4542 9.23382 15.6061 9.07954 15.76L3.09237 13.5842L9.5105 15.2998ZM14.5602 10.4365C14.6255 10.628 14.6872 10.8292 14.7437 11.0403L9.85815 15.1454L14.5602 10.4365ZM12.8862 3.64184C13.0842 3.6825 13.2889 3.73089 13.5033 3.78854L14.6054 10.0808L12.8862 3.64184ZM6.15693 1.69867C6.29115 1.54682 6.43515 1.39343 6.59046 1.23952L12.5787 3.41535L6.15693 1.69867ZM1.11293 6.56045C1.04745 6.36896 0.986249 6.16804 0.929337 5.95768L5.81493 1.85464L1.11293 6.56045ZM2.79203 13.3834C2.59181 13.3436 2.3861 13.295 2.17491 13.2377L1.06716 6.92026L2.79203 13.3834ZM6.68971 1.14172C6.84571 0.991069 7.01233 0.839047 7.18959 0.685653L13.4154 3.58573L6.68971 1.14172ZM2.0412 13.1986C1.83069 13.1379 1.61469 13.0674 1.39321 12.9871L0.797168 6.10541L2.0412 13.1986ZM8.98029 15.8573C8.82498 16.0093 8.65835 16.1613 8.48041 16.3133L2.25205 13.4122L8.98029 15.8573ZM14.7787 11.1731C14.8301 11.3836 14.8816 11.6034 14.9243 11.834L9.28936 15.7852L14.7787 11.1731ZM13.635 3.82766C13.8427 3.88703 14.0575 3.95566 14.2794 4.03356L14.8744 10.8977L13.635 3.82766ZM0.894366 5.82333C0.840882 5.61297 0.792197 5.39266 0.748312 5.1624L6.38372 1.21275L0.894366 5.82333ZM14.3915 3.91877C14.3904 3.91621 14.389 3.91378 14.3874 3.91157L14.4141 3.92649L14.3915 3.91877ZM0.59403 5.11762V5.12534V5.12843V5.11762ZM0.59403 5.22056L1.26259 12.9418C1.04385 12.8587 0.819111 12.7647 0.588373 12.6597L0.59403 5.22056ZM14.9495 11.972C14.9903 12.2005 15.0257 12.4394 15.0559 12.6885L8.62235 16.4065L14.9495 11.972ZM0.723113 5.02651C0.682314 4.7983 0.647 4.55963 0.617173 4.31049L7.04868 0.593513L0.723113 5.02651Z" fill="#636363" data-v-39f066c9=""></path></svg>