<svg width="67" height="15" viewBox="0 0 67 15" fill="none" xmlns="http://www.w3.org/2000/svg" data-v-39f066c9=""><path fill-rule="evenodd" clip-rule="evenodd" d="M25.127 8.27466V5.40894H26.599V8.38862C26.599 8.68529 26.6952 8.9231 26.8877 9.10248C27.0804 9.28175 27.3257 9.37154 27.6238 9.37154C27.9144 9.37154 28.1544 9.27998 28.3434 9.09727C28.5323 8.91456 28.6269 8.67821 28.6269 8.38862V5.40894H30.0988V8.27466C30.0988 8.97821 29.8643 9.55081 29.3955 9.99206C28.9267 10.4336 28.3362 10.6542 27.6238 10.6542C26.8968 10.6542 26.2992 10.4353 25.8303 9.99716C25.3613 9.55925 25.127 8.98518 25.127 8.27466Z" fill="#636363" data-v-39f066c9=""></path> <path fill-rule="evenodd" clip-rule="evenodd" d="M34.976 7.97489C34.976 7.55426 34.8454 7.21291 34.5835 6.95051C34.322 6.68874 33.9874 6.5576 33.5806 6.5576C33.1881 6.5576 32.8626 6.68176 32.6048 6.92999C32.3466 7.17833 32.2177 7.52312 32.2177 7.96458C32.2177 8.40604 32.3466 8.7526 32.6048 9.00406C32.8626 9.25614 33.1881 9.38187 33.5806 9.38187C33.9802 9.38187 34.3128 9.25093 34.5782 8.98864C34.8435 8.72656 34.976 8.38874 34.976 7.97489ZM35.7228 6.05583C36.2207 6.5627 36.4698 7.19895 36.4698 7.96458C36.4698 8.7301 36.2207 9.36978 35.7228 9.88364C35.2251 10.3974 34.6018 10.6544 33.8531 10.6544C33.177 10.6544 32.6391 10.4475 32.2394 10.0336V12.3923H30.7676V5.40906H32.1195V6.05072C32.4903 5.54718 33.068 5.29541 33.8531 5.29541C34.6018 5.29541 35.2251 5.54874 35.7228 6.05583Z" fill="#636363" data-v-39f066c9=""></path> <path fill-rule="evenodd" clip-rule="evenodd" d="M38.4853 7.45753H40.9386C40.9312 7.14721 40.8166 6.89721 40.595 6.70753C40.3731 6.51794 40.0988 6.42315 39.7718 6.42315C39.4593 6.42315 39.1866 6.51617 38.9541 6.70242C38.7214 6.88846 38.5651 7.14044 38.4853 7.45753ZM42.2685 8.44034H38.4853C38.5725 8.76471 38.7485 9.01471 39.014 9.19044C39.2791 9.36648 39.6083 9.4544 40.0008 9.4544C40.5312 9.4544 41.0328 9.2819 41.5054 8.9369L42.1159 9.88888C41.469 10.3993 40.7493 10.6544 39.957 10.6544C39.1284 10.668 38.4253 10.4112 37.8474 9.88367C37.2695 9.35586 36.9878 8.71971 37.0025 7.97492C36.9878 7.2369 37.2603 6.60242 37.8202 6.07138C38.3797 5.54023 39.0484 5.28169 39.8264 5.29544C40.5679 5.29544 41.1765 5.52294 41.6525 5.97825C42.1286 6.43346 42.3667 6.99898 42.3667 7.67503C42.3667 7.92305 42.3339 8.17857 42.2685 8.44034Z" fill="#636363" data-v-39f066c9=""></path> <path fill-rule="evenodd" clip-rule="evenodd" d="M46.3243 5.40904V6.64029H45.9317C45.4809 6.64029 45.1266 6.75415 44.8688 6.98175C44.6105 7.20925 44.4817 7.5404 44.4817 7.97488V10.5302H43.0098V5.40904H44.3618V6.01946C44.7396 5.57133 45.234 5.34717 45.8445 5.34717C46.0263 5.34717 46.1863 5.36779 46.3243 5.40904Z" fill="#636363" data-v-39f066c9=""></path> <path fill-rule="evenodd" clip-rule="evenodd" d="M50.497 10.5301H51.9689V2.64673H50.497V10.5301ZM49.7941 2.64673V3.8986H49.4396C49.098 3.8986 48.8489 3.96069 48.6928 4.08485C48.5364 4.20881 48.4584 4.41235 48.4584 4.69517V5.40892H49.7941V6.5884H48.4584V10.5301H46.9863V4.5711C46.9863 3.93662 47.1681 3.45735 47.5317 3.13298C47.8949 2.80902 48.4073 2.64673 49.0689 2.64673H49.7941Z" fill="#636363" data-v-39f066c9=""></path> <path fill-rule="evenodd" clip-rule="evenodd" d="M52.6816 8.27466V5.40894H54.1537V8.38862C54.1537 8.68529 54.2499 8.9231 54.4425 9.10248C54.6351 9.28175 54.8804 9.37154 55.1786 9.37154C55.4692 9.37154 55.7091 9.27998 55.898 9.09727C56.087 8.91456 56.1814 8.67821 56.1814 8.38862V5.40894H57.6534V8.27466C57.6534 8.97821 57.4191 9.55081 56.9501 9.99206C56.4814 10.4336 55.8906 10.6542 55.1786 10.6542C54.4515 10.6542 53.8538 10.4353 53.3851 9.99716C52.916 9.55925 52.6816 8.98518 52.6816 8.27466Z" fill="#636363" data-v-39f066c9=""></path> <path fill-rule="evenodd" clip-rule="evenodd" d="M58.377 10.5301H59.8489V5.40894H58.377V10.5301Z" fill="#636363" data-v-39f066c9=""></path> <path fill-rule="evenodd" clip-rule="evenodd" d="M64.4921 9.00913C64.7498 8.7609 64.8791 8.41621 64.8791 7.97475C64.8791 7.53329 64.7482 7.18673 64.4866 6.93496C64.2248 6.68319 63.9014 6.55746 63.5163 6.55746C63.1162 6.55746 62.7838 6.6886 62.5185 6.95038C62.2531 7.21277 62.1206 7.55058 62.1206 7.96444C62.1206 8.38527 62.2515 8.72642 62.5131 8.9885C62.7748 9.25079 63.109 9.38173 63.5163 9.38173C63.9087 9.38173 64.2338 9.25756 64.4921 9.00913ZM64.8573 2.64673H66.3291V10.5301H64.9772V9.89892C64.6065 10.4025 64.0285 10.6542 63.2437 10.6542C62.4875 10.6542 61.8624 10.4007 61.3684 9.89381C60.8738 9.38694 60.627 8.74725 60.627 7.97475C60.627 7.20236 60.8738 6.56256 61.3684 6.05569C61.8624 5.5486 62.4875 5.29527 63.2437 5.29527C63.9266 5.29527 64.4647 5.49881 64.8573 5.90569V2.64673Z" fill="#636363" data-v-39f066c9=""></path> <path fill-rule="evenodd" clip-rule="evenodd" d="M22.8283 6.60904L22.0105 6.26779C21.6906 6.12998 21.4709 6.00748 21.351 5.90029C21.2311 5.79362 21.171 5.65394 21.171 5.48154C21.171 5.45591 21.1762 5.43321 21.1788 5.40894H19.6825C19.6809 5.44352 19.6774 5.47716 19.6774 5.51248C19.6774 6.33331 20.2588 6.98852 21.4219 7.47821L22.1958 7.80914C22.5593 7.968 22.8027 8.10071 22.9264 8.20748C23.05 8.31435 23.1119 8.46466 23.1119 8.65737C23.1119 8.89216 23.0208 9.07643 22.8393 9.21102C22.6575 9.3455 22.4066 9.41268 22.0869 9.41268C21.418 9.41268 20.8293 9.08154 20.3206 8.41956L19.3066 9.14362C19.5901 9.61289 19.9734 9.98164 20.4569 10.2507C20.9402 10.5198 21.4836 10.6542 22.0869 10.6542C22.8209 10.6542 23.4243 10.4663 23.8968 10.0904C24.3692 9.71446 24.6055 9.21966 24.6055 8.60581C24.6055 8.1505 24.4637 7.76966 24.1803 7.46269C23.8968 7.15581 23.446 6.87133 22.8283 6.60904Z" fill="#636363" data-v-39f066c9=""></path> <path fill-rule="evenodd" clip-rule="evenodd" d="M24.6044 3.37695H22.4629V4.393H23.5337V5.40893H24.6044V3.37695Z" fill="#636363" data-v-39f066c9=""></path> <path fill-rule="evenodd" clip-rule="evenodd" d="M59.8457 5.40907H61.4683V3.86938H59.8457V5.40907Z" fill="#636363" data-v-39f066c9=""></path> <path fill-rule="evenodd" clip-rule="evenodd" d="M12.5949 8.8147H9.73396V6.10001H6.87286V3.38522H12.5949V8.8147ZM4.01187 11.5294H6.87286V8.8147H4.01187V11.5294ZM0.462891 1.64397V13.2708C0.462891 14.1689 1.23015 14.897 2.17667 14.897H14.4301C15.3767 14.897 16.1439 14.1689 16.1439 13.2708V1.64397C16.1439 0.745843 15.3767 0.0178223 14.4301 0.0178223H2.17667C1.23015 0.0178223 0.462891 0.745843 0.462891 1.64397Z" fill="#636363" data-v-39f066c9=""></path></svg>