<svg data-v-39f066c9="" width="430" height="25" viewBox="0 0 430 25" fill="none" xmlns="http://www.w3.org/2000/svg" class="img-fluid mb-4 mb-md-4"><path data-v-39f066c9="" d="M118.801 1.84375H115.471V22.7144H118.801V1.84375Z" fill="#FAFAFA"></path> <path data-v-39f066c9="" d="M367.239 8.01008C367.239 7.02609 366.997 4.57369 364.752 3.06995C363.46 2.20202 361.865 1.84375 359.241 1.84375H355.467V22.7144H358.797V14.237H359.231L365.135 22.6791L365.16 22.7144H369.182L362.703 13.8333C365.509 13.152 367.239 10.9318 367.239 8.01008ZM364.035 8.04035C364.035 10.9166 361.325 11.3455 359.706 11.3455H358.792V4.92187H359.796C362.607 4.92187 364.03 5.97146 364.03 8.04035H364.035Z" fill="#FAFAFA"></path> <path data-v-39f066c9="" d="M145.262 1.47046C139.076 1.47046 134.408 6.12296 134.408 12.2943C134.408 18.4657 139.076 23.1182 145.262 23.1182C151.449 23.1182 156.117 18.4657 156.117 12.2943C156.117 6.12296 151.449 1.47046 145.262 1.47046ZM152.786 12.2943C152.786 16.851 149.693 20.035 145.262 20.035C140.832 20.035 137.739 16.851 137.739 12.2943C137.739 7.73771 140.832 4.54858 145.262 4.54858C149.693 4.54858 152.786 7.73266 152.786 12.2943Z" fill="#FAFAFA"></path> <path data-v-39f066c9="" d="M94.5439 10.2305L92.4649 9.39283C90.9964 8.80244 90.2799 8.00515 90.2799 6.95052C90.2799 5.75459 91.1579 4.54858 93.1158 4.54858C94.0191 4.54858 94.67 4.76556 95.2957 5.27521C95.7146 5.63853 96.0022 6.04222 96.204 6.54683L96.2393 6.63261L98.934 5.05823L98.8986 4.99263C98.505 4.2004 97.9348 3.45357 97.294 2.88841C96.199 1.94984 94.781 1.47046 93.0805 1.47046C89.0537 1.47046 86.9444 4.26095 86.9444 7.01612C86.9444 9.39283 88.3422 11.1337 91.2185 12.3397L93.2066 13.1774C94.6549 13.7728 96.1384 14.6458 96.1384 16.6441C96.1384 18.6423 94.7356 20.0401 92.803 20.0401C91.6878 20.0401 90.7996 19.6314 90.1638 18.829C89.629 18.1276 89.3111 17.1588 89.3111 16.2404V16.1395L86.0059 16.8611V16.9317C86.1472 18.5162 86.7224 19.8534 87.772 21.014C89.0587 22.4521 90.6281 23.1233 92.7071 23.1233C96.6834 23.1233 99.4638 20.358 99.4638 16.3968C99.4638 13.5609 97.8995 11.603 94.5388 10.2355L94.5439 10.2305Z" fill="#FAFAFA"></path> <path data-v-39f066c9="" d="M11.6464 16.2555L4.41533 0.102946L0.0201844 22.6136L0 22.7145H3.39602L5.53557 10.397L11.4597 23.7944L17.4494 10.4273L19.5284 22.7145H22.9194L18.9481 0.0979004L11.6464 16.2555Z" fill="#FAFAFA"></path> <path data-v-39f066c9="" d="M42.221 1.84375H38.8906V22.7144H42.221V1.84375Z" fill="#FAFAFA"></path> <path data-v-39f066c9="" d="M66.4169 10.2305L64.3379 9.39283C62.8695 8.80244 62.153 8.00515 62.153 6.95052C62.153 5.75459 63.031 4.54858 64.9889 4.54858C65.8921 4.54858 66.5431 4.76556 67.1688 5.27521C67.5876 5.63853 67.8752 6.04222 68.0771 6.54683L68.1124 6.63261L70.807 5.05823L70.7717 4.99263C70.3781 4.2004 69.8079 3.45357 69.167 2.88841C68.072 1.94984 66.6541 1.47046 64.9535 1.47046C60.9268 1.47046 58.8175 4.26095 58.8175 7.01612C58.8175 9.39283 60.2152 11.1337 63.0915 12.3397L65.0797 13.1774C66.5279 13.7678 68.0115 14.6458 68.0115 16.6441C68.0115 18.6423 66.6087 20.0401 64.676 20.0401C63.5608 20.0401 62.6727 19.6314 62.0369 18.829C61.502 18.1276 61.1841 17.1588 61.1841 16.2404V16.1395L57.8789 16.8611V16.9317C58.0202 18.5162 58.6005 19.8534 59.645 21.014C60.9318 22.4521 62.5011 23.1233 64.5801 23.1233C68.5564 23.1233 71.3368 20.358 71.3368 16.3968C71.3368 13.5609 69.7726 11.603 66.4119 10.2355L66.4169 10.2305Z" fill="#FAFAFA"></path> <path data-v-39f066c9="" d="M423.029 19.5707V1.84375H419.703V22.7144H429.114V19.5707H423.029Z" fill="#FAFAFA"></path> <path data-v-39f066c9="" d="M267.868 1.47046C261.681 1.47046 257.014 6.12296 257.014 12.2943C257.014 18.4657 261.681 23.1182 267.868 23.1182C274.054 23.1182 278.722 18.4657 278.722 12.2943C278.722 6.12296 274.054 1.47046 267.868 1.47046ZM275.392 12.2943C275.392 16.851 272.298 20.035 267.868 20.035C263.437 20.035 260.344 16.851 260.344 12.2943C260.344 7.73771 263.437 4.54858 267.868 4.54858C272.298 4.54858 275.392 7.73266 275.392 12.2943Z" fill="#FAFAFA"></path> <path data-v-39f066c9="" d="M309.205 16.0637L294.319 0.471288L294.178 0.324951V22.7145H297.508V8.36338L312.394 23.9609L312.535 24.1072V1.84383H309.205V16.0637Z" fill="#FAFAFA"></path> <path data-v-39f066c9="" d="M327.582 4.98242H332.335V22.7144H335.661V4.98242H340.414V1.84375H327.582V4.98242Z" fill="#FAFAFA"></path> <path data-v-39f066c9="" d="M186.751 16.0637L171.865 0.471288L171.729 0.324951V22.7145H175.054V8.36338L189.94 23.9609L190.081 24.1072V1.84383H186.751V16.0637Z" fill="#FAFAFA"></path> <path data-v-39f066c9="" d="M393.393 1.47046C387.207 1.47046 382.539 6.12296 382.539 12.2943C382.539 18.4657 387.207 23.1182 393.393 23.1182C399.58 23.1182 404.247 18.4657 404.247 12.2943C404.247 6.12296 399.58 1.47046 393.393 1.47046ZM400.917 12.2943C400.917 16.851 397.824 20.035 393.393 20.035C388.963 20.035 385.864 16.851 385.864 12.2943C385.864 7.73771 388.958 4.54858 393.393 4.54858C397.829 4.54858 400.917 7.73266 400.917 12.2943Z" fill="#FAFAFA"></path> <path data-v-39f066c9="" d="M236.849 1.47038C233.68 1.47038 231.283 2.33326 229.31 4.19527C227.781 5.63845 225.965 8.23215 225.965 12.3599C225.965 15.554 227.06 18.1326 229.31 20.2419C230.693 21.5538 233.1 23.1181 236.693 23.1181C237.853 23.1181 240.139 22.9163 242.415 21.5538L242.455 21.5286V17.5371L242.319 17.6683C241.179 18.7482 239.292 20.035 236.789 20.035C232.515 20.035 229.295 16.7348 229.295 12.3548C229.295 7.75781 232.363 4.5485 236.758 4.5485C238.812 4.5485 240.634 5.29532 242.324 6.82429L242.461 6.94539V2.9943L242.425 2.96907C240.816 1.94471 239.049 1.46533 236.854 1.46533L236.849 1.47038Z" fill="#FAFAFA"></path></svg>