<svg width="34" height="34" viewBox="0 0 34 34" fill="none" xmlns="http://www.w3.org/2000/svg">
<path d="M32.0172 23.418L29.9967 29.9875L26.03 28.9443L32.0172 23.418Z" fill="#E4761B" stroke="#E4761B" stroke-width="0.190386"/>
<path d="M26.03 28.9443L29.8559 23.9037L32.0172 23.418L26.03 28.9443Z" fill="#E4761B" stroke="#E4761B" stroke-width="0.190386"/>
<path d="M29.0444 18.4655L32.0173 23.4185L29.856 23.9043L29.0444 18.4655ZM29.0444 18.4655L30.9574 17.1914L32.0173 23.4185L29.0444 18.4655Z" fill="#F6851B" stroke="#F6851B" stroke-width="0.190386"/>
<path d="M26.6099 14.7226L32.1085 12.5566L31.8352 13.7431L26.6099 14.7226ZM31.6613 15.1685L26.6099 14.7226L31.8352 13.7431L31.6613 15.1685Z" fill="#763D16" stroke="#763D16" stroke-width="0.190386"/>
<path d="M31.6613 15.1685L30.9574 17.1911L26.6099 14.7226L31.6613 15.1685ZM32.7627 13.0583L31.8352 13.7431L32.1085 12.5566L32.7627 13.0583ZM31.6613 15.1685L31.8352 13.7431L32.5722 14.3324L31.6613 15.1685Z" fill="#763D16" stroke="#763D16" stroke-width="0.190386"/>
<path d="M21.7654 27.3438L23.14 27.7658L26.0301 28.9443L21.7654 27.3438Z" fill="#E2761B" stroke="#E2761B" stroke-width="0.190386"/>
<path d="M30.9576 17.1912L31.6615 15.1686L32.266 15.6145L30.9576 17.1912ZM30.9576 17.1912L25.252 15.3836L26.61 14.7227L30.9576 17.1912Z" fill="#763D16" stroke="#763D16" stroke-width="0.190386"/>
<path d="M27.9681 8.51953L26.61 14.7227L25.252 15.3837L27.9681 8.51953Z" fill="#763D16" stroke="#763D16" stroke-width="0.190386"/>
<path d="M32.1085 12.5568L26.6099 14.7227L27.968 8.51953L32.1085 12.5568Z" fill="#763D16" stroke="#763D16" stroke-width="0.190386"/>
<path d="M27.9678 8.51986L33.7065 7.88281L32.1083 12.5571L27.9678 8.51986Z" fill="#763D16" stroke="#763D16" stroke-width="0.190386"/>
<path d="M30.9576 17.1924L29.0447 18.4665L25.252 15.3848L30.9576 17.1924Z" fill="#F6851B" stroke="#F6851B" stroke-width="0.190386"/>
<path d="M33.4581 3.41602L33.7065 7.88329L27.9678 8.52033L33.4581 3.41602Z" fill="#763D16" stroke="#763D16" stroke-width="0.190386"/>
<path d="M33.4581 3.41602L21.9889 11.4348L21.8398 5.99605L33.4581 3.41602Z" fill="#E2761B" stroke="#E2761B" stroke-width="0.190386"/>
<path d="M13.3105 5.3418L21.84 5.99477L21.9891 11.4335L13.3105 5.3418Z" fill="#F6851B" stroke="#F6851B" stroke-width="0.190386"/>
<path d="M25.2517 15.3837L21.989 11.434L27.9679 8.51953L25.2517 15.3837Z" fill="#763D16" stroke="#763D16" stroke-width="0.190386"/>
<path d="M25.2517 15.3848L29.0444 18.4665L23.7197 19.0318L25.2517 15.3848Z" fill="#E4761B" stroke="#E4761B" stroke-width="0.190386"/>
<path d="M23.7198 19.0303L21.989 11.4336L25.2517 15.3833L23.7198 19.0303Z" fill="#E4761B" stroke="#E4761B" stroke-width="0.190386"/>
<path d="M27.9679 8.52033L21.989 11.4348L33.4583 3.41602L27.9679 8.52033Z" fill="#763D16" stroke="#763D16" stroke-width="0.190386"/>
<path d="M13.3851 28.8182L16.093 31.5336L12.408 28.3086L13.3851 28.8182Z" fill="#C0AD9E" stroke="#C0AD9E" stroke-width="0.190386"/>
<path d="M26.03 28.9449L27.3136 24.2547L29.8559 23.9043L26.03 28.9449Z" fill="#CD6116" stroke="#CD6116" stroke-width="0.190386"/>
<path d="M2.4043 15.7497L7.09137 11.0117L3.00881 15.1844L2.4043 15.7497Z" fill="#E2761B" stroke="#E2761B" stroke-width="0.190386"/>
<path d="M29.8561 23.9037L27.3138 24.2541L29.0445 18.4649L29.8561 23.9037ZM21.9891 11.4335L17.4262 11.2902L13.3105 5.3418L21.9891 11.4335Z" fill="#F6851B" stroke="#F6851B" stroke-width="0.190386"/>
<path d="M29.0444 18.4668L27.3136 24.2559L27.1729 21.4291L29.0444 18.4668Z" fill="#E4751F" stroke="#E4751F" stroke-width="0.190386"/>
<path d="M23.7197 19.0322L29.0444 18.4668L27.1729 21.4291L23.7197 19.0322Z" fill="#CD6116" stroke="#CD6116" stroke-width="0.190386"/>
<path d="M17.426 11.291L21.9889 11.4343L23.7196 19.0311L17.426 11.291Z" fill="#F6851B" stroke="#F6851B" stroke-width="0.190386"/>
<path d="M17.4261 11.2911L5.11222 0.333984L13.3105 5.34274L17.4261 11.2911ZM13.3022 30.4821L2.60306 33.6673L0.466553 25.8237L13.3022 30.4821Z" fill="#E4761B" stroke="#E4761B" stroke-width="0.190386"/>
<path d="M3.99414 17.71L8.03529 14.6602L11.4222 15.4166L3.99414 17.71Z" fill="#763D16" stroke="#763D16" stroke-width="0.190386"/>
<path d="M11.4223 15.416L8.0354 14.6595L9.84895 7.46094L11.4223 15.416Z" fill="#763D16" stroke="#763D16" stroke-width="0.190386"/>
<path d="M3.00854 15.1857L8.03514 14.6602L3.99399 17.71L3.00854 15.1857Z" fill="#763D16" stroke="#763D16" stroke-width="0.190386"/>
<path d="M27.1729 21.4281L25.0861 20.4168L23.7197 19.0312L27.1729 21.4281Z" fill="#CD6116" stroke="#CD6116" stroke-width="0.190386"/>
<path d="M3.00892 15.1846L2.65283 13.377L8.03551 14.659L3.00892 15.1846Z" fill="#763D16" stroke="#763D16" stroke-width="0.190386"/>
<path d="M24.6555 22.6935L25.0861 20.416L27.173 21.4273L24.6555 22.6935Z" fill="#233447" stroke="#233447" stroke-width="0.190386"/>
<path d="M27.3137 24.2546L24.6555 22.6939L27.173 21.4277L27.3137 24.2546Z" fill="#F6851B" stroke="#F6851B" stroke-width="0.190386"/>
<path d="M8.03544 14.6595L2.65276 13.3775L2.21387 11.8565L8.03544 14.6595ZM9.84899 7.46094L8.03544 14.6595L2.21387 11.8565L9.84899 7.46094ZM9.84899 7.46094L17.4261 11.2912L11.4224 15.416L9.84899 7.46094Z" fill="#763D16" stroke="#763D16" stroke-width="0.190386"/>
<path d="M11.4224 15.4159L17.4261 11.291L20.1009 19.1505L11.4224 15.4159ZM20.1009 19.1505L11.8033 18.9833L11.4224 15.4159L20.1009 19.1505Z" fill="#E4761B" stroke="#E4761B" stroke-width="0.190386"/>
<path d="M3.99414 17.7092L11.4222 15.4159L11.8032 18.9833L3.99414 17.7092ZM23.7196 19.0311L20.1008 19.1505L17.426 11.291L23.7196 19.0311Z" fill="#F6851B" stroke="#F6851B" stroke-width="0.190386"/>
<path d="M25.0861 20.4168L24.6555 22.6943L23.7197 19.0312L25.0861 20.4168Z" fill="#CD6116" stroke="#CD6116" stroke-width="0.190386"/>
<path d="M5.1123 0.333984L17.4262 11.2911L9.84906 7.46092L5.1123 0.333984Z" fill="#763D16" stroke="#763D16" stroke-width="0.190386"/>
<path d="M0.466553 25.8242L10.851 25.4102L13.3022 30.4826L0.466553 25.8242Z" fill="#E4761B" stroke="#E4761B" stroke-width="0.190386"/>
<path d="M13.3023 30.4813L10.8511 25.4088L15.9522 25.1699L13.3023 30.4813Z" fill="#CD6116" stroke="#CD6116" stroke-width="0.190386"/>
<path d="M24.6555 22.6939L27.3137 24.2546L28.7794 27.5752L24.6555 22.6939ZM11.8033 18.9831L0.466553 25.8233L3.99428 17.709L11.8033 18.9831ZM10.851 25.4093L0.466553 25.8233L11.8033 18.9831L10.851 25.4093ZM23.7197 19.0309L24.3988 21.4038L21.1195 21.587L23.7197 19.0309ZM21.1195 21.587L20.1009 19.1503L23.7197 19.0309L21.1195 21.587Z" fill="#F6851B" stroke="#F6851B" stroke-width="0.190386"/>
<path d="M16.0927 31.5335L13.302 30.4824L23.0074 32.0511L16.0927 31.5335Z" fill="#C0AD9E" stroke="#C0AD9E" stroke-width="0.190386"/>
<path d="M3.99426 17.7098L2.4043 15.7509L3.00881 15.1855L3.99426 17.7098Z" fill="#763D16" stroke="#763D16" stroke-width="0.190386"/>
<path d="M24.1088 30.8885L23.0074 32.0511L13.302 30.4824L24.1088 30.8885Z" fill="#D7C1B3" stroke="#D7C1B3" stroke-width="0.190386"/>
<path d="M24.6305 28.0366L13.302 30.4813L15.9519 25.1699L24.6305 28.0366Z" fill="#E4761B" stroke="#E4761B" stroke-width="0.190386"/>
<path d="M13.302 30.4818L24.6305 28.0371L24.1088 30.8879L13.302 30.4818Z" fill="#D7C1B3" stroke="#D7C1B3" stroke-width="0.190386"/>
<path d="M2.21371 11.856L1.84106 5.73242L9.84883 7.4604L2.21371 11.856ZM3.00869 15.1846L1.90731 14.1096L2.65261 13.377L3.00869 15.1846Z" fill="#763D16" stroke="#763D16" stroke-width="0.190386"/>
<path d="M18.2458 20.7271L20.1008 19.1504L19.8358 23.0045L18.2458 20.7271Z" fill="#CD6116" stroke="#CD6116" stroke-width="0.190386"/>
<path d="M20.1007 19.1504L18.2458 20.7271L15.5461 22.0728L20.1007 19.1504Z" fill="#CD6116" stroke="#CD6116" stroke-width="0.190386"/>
<path d="M28.7795 27.5747L28.2743 27.2164L24.6555 22.6934L28.7795 27.5747Z" fill="#F6851B" stroke="#F6851B" stroke-width="0.190386"/>
<path d="M15.5465 22.074L11.8035 18.9844L20.1011 19.1516L15.5465 22.074Z" fill="#CD6116" stroke="#CD6116" stroke-width="0.190386"/>
<path d="M19.8359 23.0045L20.1009 19.1504L21.1195 21.5871L19.8359 23.0045Z" fill="#E4751F" stroke="#E4751F" stroke-width="0.190386"/>
<path d="M1.54321 12.4626L2.21398 11.8574L2.65287 13.3784L1.54321 12.4626Z" fill="#763D16" stroke="#763D16" stroke-width="0.190386"/>
<path d="M19.8357 23.004L15.5461 22.0723L18.2458 20.7266L19.8357 23.004Z" fill="#233447" stroke="#233447" stroke-width="0.190386"/>
<path d="M9.84883 7.46091L1.84106 5.73293L5.11208 0.333984L9.84883 7.46091Z" fill="#763D16" stroke="#763D16" stroke-width="0.190386"/>
<path d="M23.0074 32.0508L23.4629 33.2453L16.0928 31.5332L23.0074 32.0508Z" fill="#C0AD9E" stroke="#C0AD9E" stroke-width="0.190386"/>
<path d="M15.9519 25.1699L15.5461 22.0723L19.8357 23.0039L15.9519 25.1699Z" fill="#F6851B" stroke="#F6851B" stroke-width="0.190386"/>
<path d="M11.8035 18.9844L15.5465 22.074L15.9523 25.1717L11.8035 18.9844Z" fill="#E4751F" stroke="#E4751F" stroke-width="0.190386"/>
<path d="M21.1196 21.5883L24.3989 21.4051L28.2744 27.2182L21.1196 21.5883ZM11.8034 18.9844L15.9522 25.1717L10.8511 25.4106L11.8034 18.9844Z" fill="#F6851B" stroke="#F6851B" stroke-width="0.190386"/>
<path d="M21.1195 21.5879L25.1938 27.5522L19.8359 23.0053L21.1195 21.5879Z" fill="#E4751F" stroke="#E4751F" stroke-width="0.190386"/>
<path d="M19.8359 23.0039L25.1938 27.5508L24.6307 28.0366L19.8359 23.0039Z" fill="#F6851B" stroke="#F6851B" stroke-width="0.190386"/>
<path d="M24.6307 28.038L15.9521 25.1713L19.836 23.0053L24.6307 28.038ZM28.2743 27.2178L25.1938 27.5522L21.1195 21.5879L28.2743 27.2178Z" fill="#F6851B" stroke="#F6851B" stroke-width="0.190386"/>
<path d="M29.0861 30.0195L27.7611 32.5757L23.4633 33.2446L29.0861 30.0195ZM23.4633 33.2446L23.0078 32.0501L24.1092 30.8875L23.4633 33.2446Z" fill="#C0AD9E" stroke="#C0AD9E" stroke-width="0.190386"/>
<path d="M24.1088 30.8875L24.9204 30.5769L23.4629 33.2446L24.1088 30.8875ZM23.4629 33.2446L24.9204 30.5769L29.0857 30.0195L23.4629 33.2446Z" fill="#C0AD9E" stroke="#C0AD9E" stroke-width="0.190386"/>
<path d="M28.2743 27.2168L29.2929 27.814L26.1958 28.1724L28.2743 27.2168Z" fill="#161616" stroke="#161616" stroke-width="0.190386"/>
<path d="M26.1956 28.1724L25.1936 27.5512L28.2742 27.2168L26.1956 28.1724ZM25.8395 28.6422L29.6074 28.2042L29.0857 30.0198L25.8395 28.6422Z" fill="#161616" stroke="#161616" stroke-width="0.190386"/>
<path d="M29.0858 30.0193L24.9204 30.5767L25.8396 28.6417L29.0858 30.0193ZM24.9204 30.5767L24.1089 30.8873L24.6306 28.0365L24.9204 30.5767ZM24.6306 28.0365L25.1937 27.5508L26.1957 28.1719L24.6306 28.0365ZM29.2928 27.8136L29.6075 28.2038L25.8396 28.6417L29.2928 27.8136Z" fill="#161616" stroke="#161616" stroke-width="0.190386"/>
<path d="M25.8396 28.6426L26.1957 28.1728L29.2928 27.8145L25.8396 28.6426ZM24.6306 28.0374L25.8396 28.6426L24.9205 30.5776L24.6306 28.0374Z" fill="#161616" stroke="#161616" stroke-width="0.190386"/>
<path d="M26.1957 28.1725L25.8396 28.6423L24.6306 28.0371L26.1957 28.1725Z" fill="#161616" stroke="#161616" stroke-width="0.190386"/>
</svg>
