<svg width="63" height="13" viewBox="0 0 63 13" fill="none" xmlns="http://www.w3.org/2000/svg" data-v-39f066c9=""><g clip-path="url(#clip0_4076_30489)" data-v-39f066c9=""><path d="M11.1006 3.97146C10.8292 3.80655 10.4763 3.80655 10.1778 3.97146L8.06079 5.23571L6.62233 6.06024L4.50536 7.32453C4.23397 7.48942 3.88113 7.48942 3.58258 7.32453L1.89985 6.3351C1.62845 6.17021 1.43846 5.86788 1.43846 5.53804V3.58668C1.43846 3.25687 1.6013 2.95455 1.89985 2.78964L3.55544 1.82769C3.82685 1.66279 4.17966 1.66279 4.47823 1.82769L6.13381 2.78964C6.40521 2.95455 6.59519 3.25687 6.59519 3.58668V4.85095L8.03365 3.99894V2.73467C8.03365 2.40486 7.87084 2.10254 7.57227 1.93763L4.50536 0.123679C4.23397 -0.0412263 3.88113 -0.0412263 3.58258 0.123679L0.461395 1.93763C0.162845 2.10254 0 2.40486 0 2.73467V6.39007C0 6.71986 0.162845 7.02219 0.461395 7.18709L3.58258 9.00104C3.85399 9.16598 4.20684 9.16598 4.50536 9.00104L6.62233 7.76425L8.06079 6.91226L10.1778 5.67548C10.4492 5.51058 10.802 5.51058 11.1006 5.67548L12.7561 6.63744C13.0276 6.80233 13.2176 7.10466 13.2176 7.43446V9.38584C13.2176 9.71563 13.0547 10.018 12.7561 10.1829L11.1006 11.1723C10.8292 11.3372 10.4763 11.3372 10.1778 11.1723L8.52221 10.2104C8.25078 10.0455 8.06079 9.74314 8.06079 9.4133V8.14905L6.62233 9.00104V10.2653C6.62233 10.5951 6.78518 10.8975 7.08375 11.0624L10.2049 12.8763C10.4763 13.0412 10.8292 13.0412 11.1277 12.8763L14.2489 11.0624C14.5203 10.8975 14.7103 10.5951 14.7103 10.2653V6.60993C14.7103 6.28014 14.5474 5.97781 14.2489 5.81291L11.1006 3.97146Z" fill="#636363" data-v-39f066c9=""></path> <path d="M20.4383 11.8307V8.79606C20.7693 9.21043 21.37 9.44199 22.0687 9.44199C23.8462 9.44199 25.0476 8.18668 25.0476 6.27324C25.0476 4.35981 23.9443 3.10449 22.2158 3.10449C21.419 3.10449 20.8061 3.39699 20.4383 3.87231V3.20199H18.7344V11.8307H20.4383ZM21.8603 7.97949C20.9409 7.97949 20.3403 7.29699 20.3403 6.27324C20.3403 5.23731 20.9409 4.55481 21.8603 4.55481C22.7552 4.55481 23.3681 5.23731 23.3681 6.27324C23.3681 7.29699 22.7552 7.97949 21.8603 7.97949Z" fill="#636363" data-v-39f066c9=""></path> <path d="M28.917 9.44199C30.8171 9.44199 32.1778 8.10137 32.1778 6.27324C32.1778 4.44512 30.8171 3.10449 28.917 3.10449C27.017 3.10449 25.6562 4.44512 25.6562 6.27324C25.6562 8.10137 27.017 9.44199 28.917 9.44199ZM28.917 7.97949C27.9976 7.97949 27.3724 7.2848 27.3724 6.27324C27.3724 5.24949 27.9976 4.5548 28.917 4.5548C29.8364 4.5548 30.4616 5.24949 30.4616 6.27324C30.4616 7.2848 29.8364 7.97949 28.917 7.97949Z" fill="#636363" data-v-39f066c9=""></path> <path d="M34.9149 9.34476V0.533203H33.2109V9.34476H34.9149Z" fill="#636363" data-v-39f066c9=""></path> <path d="M40.0382 3.20215L38.7511 7.16309L37.4517 3.20215H35.7109L37.9543 9.2959L37.0472 11.8309H38.6775L39.5479 9.32027L41.7912 3.20215H40.0382Z" fill="#636363" data-v-39f066c9=""></path> <path d="M46.5735 3.81137C46.2301 3.3848 45.6174 3.10449 44.8696 3.10449C43.0673 3.10449 41.9766 4.35981 41.9766 6.27324C41.9766 8.18668 43.0673 9.44199 44.8939 9.44199C45.6174 9.44199 46.2667 9.17387 46.5859 8.72293V9.52731C46.5859 10.1001 46.2058 10.5023 45.6907 10.5023H42.8466V11.8307H45.9604C47.3579 11.8307 48.2897 10.9898 48.2897 9.71012V3.20199H46.5735V3.81137ZM45.1636 7.97949C44.2565 7.97949 43.6557 7.30918 43.6557 6.27324C43.6557 5.23731 44.2565 4.55481 45.1636 4.55481C46.0831 4.55481 46.6839 5.23731 46.6839 6.27324C46.6839 7.30918 46.0831 7.97949 45.1636 7.97949Z" fill="#636363" data-v-39f066c9=""></path> <path d="M52.5889 9.44199C54.4892 9.44199 55.8497 8.10137 55.8497 6.27324C55.8497 4.44512 54.4892 3.10449 52.5889 3.10449C50.689 3.10449 49.3281 4.44512 49.3281 6.27324C49.3281 8.10137 50.689 9.44199 52.5889 9.44199ZM52.5889 7.97949C51.6694 7.97949 51.0444 7.2848 51.0444 6.27324C51.0444 5.24949 51.6694 4.5548 52.5889 4.5548C53.5084 4.5548 54.1334 5.24949 54.1334 6.27324C54.1334 7.2848 53.5084 7.97949 52.5889 7.97949Z" fill="#636363" data-v-39f066c9=""></path> <path d="M58.4975 9.34449V5.98074C58.4975 5.18855 59.0245 4.61574 59.7723 4.61574C60.483 4.61574 60.9611 5.15199 60.9611 5.89543V9.34449H62.6773V5.51762C62.6773 4.10387 61.7702 3.10449 60.3727 3.10449C59.5269 3.10449 58.8405 3.45793 58.4975 4.05512V3.20199H56.7812V9.34449H58.4975Z" fill="#636363" data-v-39f066c9=""></path></g> <defs data-v-39f066c9=""><clipPath id="clip0_4076_30489" data-v-39f066c9=""><rect width="63" height="13" fill="white" data-v-39f066c9=""></rect></clipPath></defs></svg>