<svg width="99" height="11" viewBox="0 0 99 11" fill="none" xmlns="http://www.w3.org/2000/svg" data-v-39f066c9=""><path d="M30.6587 3.29642C30.2419 3.2905 29.8291 3.37782 29.4504 3.552C29.0717 3.72619 28.7367 3.98282 28.47 4.30313V0.5H26.8593V10.3658H28.4439V9.44855C28.7093 9.77983 29.0467 10.0463 29.4304 10.2279C29.8142 10.4094 30.2342 10.5012 30.6587 10.4963C32.5919 10.4963 34.0535 8.9657 34.0535 6.89821C34.0535 4.83072 32.564 3.29642 30.6587 3.29642ZM30.4163 9.01417C29.2623 9.01417 28.4159 8.11372 28.4159 6.90567C28.4159 5.69761 29.2698 4.78785 30.4294 4.78785C31.589 4.78785 32.4167 5.68643 32.4167 6.90753C32.4167 8.12864 31.5703 9.01044 30.4163 9.01044V9.01417ZM45.9476 6.23453L44.7657 6.06115C44.2064 5.98098 43.8 5.79269 43.8 5.34899C43.8 4.86615 44.322 4.62379 45.0341 4.62379C45.8134 4.62379 46.3093 4.95936 46.4174 5.51119H47.9741C47.7989 4.11484 46.725 3.29642 45.0752 3.29642C43.3693 3.29642 42.2415 4.1689 42.2415 5.40306C42.2415 6.58501 42.9872 7.26734 44.4786 7.48359L45.6587 7.65884C46.2366 7.739 46.5591 7.96644 46.5591 8.40455C46.5591 8.95451 45.9998 9.18195 45.2168 9.18195C44.2623 9.18195 43.7254 8.79232 43.6453 8.20321H42.0625C42.2098 9.55854 43.2705 10.5112 45.2019 10.5112C46.9618 10.5112 48.1288 9.70582 48.1288 8.32252C48.1214 7.07718 47.275 6.43214 45.9476 6.2308V6.23453ZM40.7929 5.80574C40.7929 4.30313 39.8794 3.29642 37.9461 3.29642C36.121 3.29642 35.1013 4.22856 34.8999 5.64541H36.4976C36.5778 5.08613 37.0065 4.6387 37.92 4.6387C38.7385 4.6387 39.1412 5.00037 39.1412 5.44407C39.1412 6.02013 38.3954 6.16741 37.4913 6.26249C36.2552 6.39672 34.7247 6.82178 34.7247 8.43624C34.7247 9.68531 35.6568 10.487 37.1277 10.487C38.2817 10.487 39.0069 10.0041 39.3649 9.23788C39.4171 9.92207 39.9241 10.3658 40.64 10.3658H41.5722V8.93028H40.7799L40.7929 5.80574ZM39.2083 7.55071C39.2083 8.48285 38.4029 9.16145 37.4241 9.16145C36.8201 9.16145 36.3056 8.90604 36.3056 8.36913C36.3056 7.68494 37.124 7.49664 37.8753 7.41648C38.6266 7.33632 38.9939 7.18904 39.2045 6.87957L39.2083 7.55071ZM52.4036 3.29642C50.3362 3.29642 48.8186 4.8531 48.8186 6.90567C48.8186 9.06823 50.4443 10.5037 52.4297 10.5037C54.1076 10.5037 55.4238 9.51007 55.7593 8.10067H54.0815C53.8391 8.71775 53.2482 9.06823 52.4577 9.06823C51.423 9.06823 50.6456 8.42319 50.4704 7.2953H55.7985V6.6745C55.7985 4.68717 54.3499 3.29642 52.4036 3.29642ZM50.5636 6.14131C50.819 5.17562 51.5442 4.70582 52.3757 4.70582C53.2892 4.70582 53.9864 5.22782 54.1486 6.14131H50.5636ZM3.59864 4.78785C3.99525 4.78468 4.3822 4.91013 4.7015 5.1454C5.0208 5.38068 5.25525 5.7131 5.36971 6.09284H7.07366C6.76605 4.42804 5.39581 3.29642 3.61169 3.29642C3.13538 3.28707 2.66207 3.37389 2.22009 3.5517C1.77811 3.72951 1.37654 3.99466 1.03941 4.33126C0.702277 4.66787 0.436513 5.06903 0.258017 5.51074C0.0795214 5.95244 -0.00803752 6.42561 0.000579514 6.90194C0.000579514 8.96943 1.5442 10.5 3.61169 10.5C5.35666 10.5 6.753 9.38143 7.06061 7.70358H5.36971C5.26032 8.08468 5.02933 8.41956 4.71194 8.65719C4.39455 8.89481 4.00817 9.02214 3.61169 9.01976C2.44279 9.01976 1.62437 8.11931 1.62437 6.91126C1.62437 5.70321 2.42414 4.78785 3.59864 4.78785ZM11.2627 3.29642C10.7858 3.28605 10.3116 3.37212 9.86879 3.54948C9.42594 3.72683 9.02348 3.99182 8.68554 4.32853C8.34761 4.66524 8.08117 5.06675 7.90222 5.50896C7.72327 5.95117 7.63548 6.42497 7.64413 6.90194C7.64413 8.96943 9.18775 10.5 11.2552 10.5C11.7348 10.514 12.2122 10.4304 12.6585 10.2543C13.1048 10.0782 13.5107 9.81328 13.8515 9.4756C14.1924 9.13791 14.461 8.73451 14.6412 8.28986C14.8215 7.8452 14.9095 7.36858 14.8999 6.88889C14.8999 4.84937 13.3563 3.29642 11.2627 3.29642ZM11.2757 9.01417C10.1218 9.01417 9.27538 8.11372 9.27538 6.90567C9.27538 5.69761 10.1087 4.78785 11.2627 4.78785C12.4167 4.78785 13.2761 5.69948 13.2761 6.90753C13.2761 8.11559 12.4297 9.01044 11.2757 9.01044V9.01417ZM23.0077 3.29642C21.9599 3.29642 21.2757 3.72521 20.8731 4.32923V3.42692H19.2754V10.3658H20.8805V6.59433C20.8805 5.53356 21.5573 4.78785 22.5584 4.78785C23.4905 4.78785 24.061 5.44594 24.061 6.39858V10.3658H25.6717V6.27927C25.6643 4.52685 24.7657 3.29642 23.0077 3.29642ZM17.152 0.567114C17.016 0.562263 16.8806 0.585208 16.7538 0.634545C16.6271 0.683883 16.5117 0.758573 16.4149 0.854042C16.318 0.949511 16.2417 1.06375 16.1905 1.18976C16.1393 1.31577 16.1144 1.4509 16.1173 1.58688C16.1286 1.85345 16.2425 2.10534 16.4351 2.28996C16.6277 2.47457 16.8842 2.57764 17.151 2.57764C17.4178 2.57764 17.6743 2.47457 17.867 2.28996C18.0596 2.10534 18.1734 1.85345 18.1848 1.58688C18.1879 1.45099 18.1632 1.3159 18.1123 1.1899C18.0613 1.06389 17.9851 0.949632 17.8884 0.854135C17.7917 0.758637 17.6765 0.683916 17.5498 0.634559C17.4232 0.585202 17.2878 0.562251 17.152 0.567114ZM15.3399 4.85496H16.3466V10.3658H17.9573V3.42692H15.3473L15.3399 4.85496ZM70.9271 3.41946L68.2705 10.3658H69.3518L69.9652 8.70283H73.0804L73.7012 10.3583H74.8197L72.124 3.42692L70.9271 3.41946ZM70.284 7.81357L71.4864 4.5399H71.5051L72.728 7.81357H70.284ZM67.6106 3.42692L66.1415 8.83333H66.121L64.6035 3.42692H63.5725L62.0811 8.82028H62.0625L60.5711 3.43811H59.4711L61.4883 10.3807H62.5043L64.0312 4.92953H64.0517L65.6233 10.3807H66.6784L68.6247 3.42692H67.6106ZM92.825 3.42692V4.33296H95.1218V10.3658H96.1658V4.33296H98.4626V3.42692H92.825ZM87.2154 10.3658H91.9767V9.45973H88.2612V7.2226H91.6822V6.34452H88.2612V4.33296H91.9767V3.42692H87.2154V10.3658ZM82.5882 3.42692H81.5442V10.3658H86.0781V9.45973H82.5882V3.42692ZM76.9115 3.42692H75.8656V10.3658H80.3995V9.45973H76.9059L76.9115 3.42692Z" fill="#636363" data-v-39f066c9=""></path></svg>